<?xml version="1.0" encoding="utf-8"?>
<!-- Generator: Adobe Illustrator 19.0.0, SVG Export Plug-In . SVG Version: 6.00 Build 0)  -->
<svg version="1.1" id="Layer_1" xmlns="http://www.w3.org/2000/svg" xmlns:xlink="http://www.w3.org/1999/xlink" x="0px" y="0px"
	 viewBox="0 0 405 405" style="enable-background:new 0 0 405 405;" xml:space="preserve">
<style type="text/css">
	.st0{fill:#229FFF;}
	.st1{fill:none;}
	.st2{fill:#FFFFFF;}
	.st3{clip-path:url(#SVGID_2_);}
	.st4{fill:none;stroke:#FFFFFF;stroke-width:10.2004;stroke-linecap:round;stroke-linejoin:round;stroke-miterlimit:10;}
</style>
<g id="dots_x5F_B2B_1_">
	<g>
		<g>
			<path class="st0" d="M402.2,202.5c0,110.5-89.5,200-200.1,200C91.7,402.5,2.2,313,2.2,202.5C2.2,92,91.7,2.5,202.1,2.5
				C312.6,2.5,402.2,92,402.2,202.5"/>
		</g>
		<g>
			<g>
				<g>
					<line class="st1" x1="202.2" y1="2.5" x2="202.2" y2="402.5"/>
				</g>
				<g>
					<line class="st1" x1="2.2" y1="2.5" x2="2.2" y2="402.5"/>
				</g>
				<g>
					<line class="st1" x1="268.8" y1="2.5" x2="268.8" y2="402.5"/>
				</g>
				<g>
					<line class="st1" x1="68.8" y1="2.5" x2="68.8" y2="402.5"/>
				</g>
				<g>
					<line class="st1" x1="335.5" y1="2.5" x2="335.5" y2="402.5"/>
				</g>
				<g>
					<line class="st1" x1="135.5" y1="2.5" x2="135.5" y2="402.5"/>
				</g>
				<g>
					<line class="st1" x1="402.2" y1="2.5" x2="402.2" y2="402.5"/>
				</g>
			</g>
			<g>
				<g>
					<line class="st1" x1="2.2" y1="202.5" x2="402.2" y2="202.5"/>
				</g>
				<g>
					<line class="st1" x1="2.2" y1="402.5" x2="402.2" y2="402.5"/>
				</g>
				<g>
					<line class="st1" x1="2.2" y1="135.8" x2="402.2" y2="135.8"/>
				</g>
				<g>
					<line class="st1" x1="2.2" y1="335.8" x2="402.2" y2="335.8"/>
				</g>
				<g>
					<line class="st1" x1="2.2" y1="69.2" x2="402.2" y2="69.2"/>
				</g>
				<g>
					<line class="st1" x1="2.2" y1="269.2" x2="402.2" y2="269.2"/>
				</g>
				<g>
					<line class="st1" x1="2.2" y1="2.5" x2="402.2" y2="2.5"/>
				</g>
			</g>
		</g>
	</g>
</g>
<g id="dots_x5F_B2B">
</g>
<g>
	<g>
		<path class="st2" d="M264.5,337.5H139.8c-1.7,0-3.1-1.2-3.4-2.9l-28.9-182.8c-0.2-1,0.1-2,0.8-2.7c0.6-0.8,1.6-1.2,2.6-1.2h182.5
			c1,0,1.9,0.4,2.6,1.2c0.6,0.8,0.9,1.8,0.8,2.7l-28.9,182.8C267.6,336.3,266.2,337.5,264.5,337.5z M142.7,330.7h118.8l27.8-176
			H114.9L142.7,330.7z"/>
	</g>
	<g>
		<defs>
			<path id="SVGID_1_" d="M265.9,335.8H138.4l-0.2-1.4l-29.2-184.7h186.5L265.9,335.8z M141.3,332.4H263L291.4,153H112.9
				L141.3,332.4z"/>
		</defs>
		<use xlink:href="#SVGID_1_"  style="overflow:visible;fill:#FFFFFF;"/>
		<clipPath id="SVGID_2_">
			<use xlink:href="#SVGID_1_"  style="overflow:visible;"/>
		</clipPath>
		<g class="st3">
			<g>
				<line class="st4" x1="168.5" y1="127.9" x2="102" y2="194.4"/>
				<line class="st4" x1="202.9" y1="127.9" x2="136.5" y2="194.4"/>
				<line class="st4" x1="237.3" y1="127.9" x2="170.9" y2="194.4"/>
				<line class="st4" x1="271.7" y1="127.9" x2="205.3" y2="194.4"/>
				<line class="st4" x1="306.1" y1="127.9" x2="239.7" y2="194.4"/>
				<line class="st4" x1="340.5" y1="127.9" x2="274.1" y2="194.4"/>
				<line class="st4" x1="374.9" y1="127.9" x2="308.5" y2="194.4"/>
			</g>
		</g>
	</g>
	<g>
		<g>
			<path class="st2" d="M110.9,155.1c-2.1,0-3.7-1.7-3.7-3.7c0-15.7,13.5-29,29.5-29c2.1,0,4.1,0.2,6.2,0.7c4.5-5.9,11.4-9.4,19-9.4
				c0.1,0,0.2,0,0.2,0c-1.4-3.7-2-7.7-2-11.7c0-19.1,15.6-34.7,34.7-34.7c18.3,0,33.3,14.2,34.6,32.1c2.6-0.8,5.3-1.2,8-1.2
				c14.2,0,25.9,10.6,27.7,24.3c0.8-0.1,1.5-0.1,2.3-0.1c16.2,0,29.8,13.3,29.8,29c0,2.1-1.7,3.7-3.7,3.7s-3.7-1.7-3.7-3.7
				c0-11.6-10.2-21.5-22.3-21.5c-1.6,0-3.3,0.2-5,0.6c-1.1,0.3-2.3,0-3.2-0.7c-0.9-0.7-1.4-1.9-1.4-3c0-0.2,0-0.3,0-0.5l0-0.2
				c0-11.3-9.2-20.4-20.4-20.4c-3.5,0-6.9,0.9-9.9,2.6c-1.2,0.7-2.7,0.6-3.9-0.1c-1.2-0.8-1.8-2.1-1.7-3.5c0.1-0.9,0.1-1.8,0.1-2.7
				c0-15-12.2-27.2-27.2-27.2c-15,0-27.2,12.2-27.2,27.2c0,5.2,1.5,10.3,4.4,14.7c0.9,1.4,0.8,3.1-0.2,4.4s-2.7,1.7-4.2,1.2
				c-2-0.7-3.8-1.1-5.6-1.1c-5.8,0-11.1,3-14.2,8.1c-0.9,1.5-2.7,2.2-4.4,1.6c-2.2-0.7-4.4-1.1-6.6-1.1c-12,0-22,9.9-22,21.5
				C114.7,153.4,113,155.1,110.9,155.1z"/>
		</g>
		<g>
			<path class="st2" d="M174.4,140.4c-2.1,0-3.7-1.7-3.7-3.7c0-8.5,6.9-15.3,15.3-15.3c1.9,0,3.7,0.4,5.5,1
				c2.5-4.9,7.5-8.1,13.3-8.1c8.2,0,15,6.7,15,15c0,2.1-1.7,3.7-3.7,3.7s-3.7-1.7-3.7-3.7c0-4.1-3.3-7.5-7.5-7.5
				c-3.8,0-7,2.9-7.4,6.7c-0.1,1.4-1.1,2.6-2.4,3.1c-1.3,0.5-2.8,0.2-3.8-0.7c-1-0.9-2.8-2-5.2-2c-4.3,0-7.8,3.5-7.8,7.8
				C178.1,138.7,176.4,140.4,174.4,140.4z"/>
		</g>
	</g>
</g>
<g>
	<path class="st2" d="M178.9,255l-4.5-7.8c-1.8-3-3-4.9-4.1-7h-0.1c-1,2-2,3.9-3.8,7l-4.2,7.8h-5.2l10.8-17.9l-10.4-17.5h5.3
		l4.7,8.3c1.3,2.3,2.3,4.1,3.3,6h0.2c1-2.1,1.9-3.7,3.2-6l4.8-8.3h5.2l-10.8,17.2l11,18.2H178.9z"/>
	<path class="st2" d="M194.5,222.5c0.1,1.6-1.1,2.8-2.9,2.8c-1.6,0-2.8-1.3-2.8-2.8c0-1.6,1.2-2.9,2.9-2.9
		C193.4,219.6,194.5,220.8,194.5,222.5z M189.4,255v-25.4h4.6V255H189.4z"/>
	<path class="st2" d="M218.8,229.6v3.7h-7.9V255h-4.6v-21.7h-7.9v-3.7H218.8z"/>
	<path class="st2" d="M227.5,229.6v10.7c0,4-0.1,6.6-0.3,10.2l0.2,0.1c1.5-3.1,2.4-4.9,4.1-7.8l7.9-13.1h5.4V255h-4.4v-10.8
		c0-4.1,0.1-6.3,0.3-10.4h-0.2c-1.6,3.3-2.7,5.3-4.2,7.9c-2.4,3.9-5.2,8.8-7.9,13.3h-5.3v-25.4H227.5z"/>
</g>
<g>
	<path class="st2" d="M170.1,275.4v15.4h17.8v-15.4h4.8v36.8h-4.8V295h-17.8v17.3h-4.8v-36.8H170.1z"/>
	<path class="st2" d="M201,275.9c2.9-0.4,6.3-0.8,10.1-0.8c6.8,0,11.7,1.6,14.9,4.6c3.3,3,5.2,7.3,5.2,13.2c0,6-1.9,10.9-5.3,14.3
		c-3.4,3.4-9.1,5.3-16.3,5.3c-3.4,0-6.2-0.2-8.6-0.4V275.9z M205.7,308.4c1.2,0.2,2.9,0.3,4.8,0.3c10.2,0,15.7-5.7,15.7-15.6
		c0.1-8.7-4.9-14.2-14.9-14.2c-2.5,0-4.3,0.2-5.6,0.5V308.4z"/>
</g>
</svg>
