<?xml version="1.0" encoding="utf-8"?>
<!-- Generator: Adobe Illustrator 19.0.0, SVG Export Plug-In . SVG Version: 6.00 Build 0)  -->
<svg version="1.1" id="Слой_1" xmlns="http://www.w3.org/2000/svg" xmlns:xlink="http://www.w3.org/1999/xlink" x="0px" y="0px"
	 viewBox="0 0 127.6 127.6" style="enable-background:new 0 0 127.6 127.6;" xml:space="preserve">
<style type="text/css">
	.st0{fill:#1599FF;}
	.st1{fill:#FFFFFF;}
	.st2{fill:none;stroke:#FFFFFF;stroke-width:2;stroke-miterlimit:10;}
	.st3{fill:none;stroke:#FFFFFF;stroke-width:4;stroke-miterlimit:10;}
	.st4{fill:none;stroke:#FFFFFF;stroke-width:4;stroke-miterlimit:10;stroke-dasharray:4.0533,4.0533;}
	.st5{fill:none;stroke:#FFFFFF;stroke-width:2;stroke-linecap:round;stroke-miterlimit:10;}
</style>
<circle class="st0" cx="63.8" cy="63.8" r="63.8"/>
<g>
	<g>
		<g>
			<path class="st1" d="M50.4,86.5h5.9v7.7h-0.8v-7.1h-4.4v7.1h-0.8V86.5z"/>
		</g>
		<g>
			<path class="st1" d="M61.1,90.8h0.3v-0.2c0-1.1-0.6-1.4-1.4-1.4c-0.6,0-1.1,0.2-1.6,0.5l-0.3-0.6c0.4-0.4,1.2-0.6,2-0.6
				c1.3,0,2.1,0.7,2.1,2.1v3.5h-0.7v-0.6c0-0.3,0-0.5,0-0.5h0c-0.3,0.7-1,1.2-1.9,1.2c-0.9,0-1.9-0.5-1.9-1.6
				C57.7,90.9,60,90.8,61.1,90.8z M59.7,93.7c1.1,0,1.7-1.1,1.7-2.1v-0.3h-0.3c-0.9,0-2.6,0-2.6,1.3C58.5,93.2,58.9,93.7,59.7,93.7z
				"/>
		</g>
		<g>
			<path class="st1" d="M63.9,88.7h0.7V91h0.9l1.7-2.3h0.9l-1.9,2.6v0l2.1,2.9h-0.9l-1.8-2.5h-0.9v2.5h-0.7V88.7z"/>
		</g>
		<g>
			<path class="st1" d="M71.5,88.5c1.5,0,2.3,1.2,2.3,2.6c0,0.1,0,0.3,0,0.4h-4.2c0,1.4,1,2.2,2.1,2.2c0.6,0,1.2-0.3,1.7-0.7
				l0.3,0.6c-0.5,0.5-1.3,0.8-2,0.8c-1.6,0-2.9-1.2-2.9-2.9C68.7,89.6,70,88.5,71.5,88.5z M73,90.9c0-1.2-0.7-1.7-1.6-1.7
				c-0.9,0-1.7,0.6-1.9,1.7H73z"/>
		</g>
		<g>
			<path class="st1" d="M76.5,89.3h-2v-0.7h4.8v0.7h-2v4.9h-0.7V89.3z"/>
		</g>
		<g>
			<path class="st1" d="M39,103.7c1.2-1.6,1.3-3.8,1.3-5.5v-1.5h4.2v7.1h0.9v2.2h-0.7v-1.5h-5.7v1.5h-0.7v-2.2H39z M43.7,103.7v-6.4
				H41v0.8c0,1.9-0.2,4-1.2,5.5H43.7z"/>
		</g>
		<g>
			<path class="st1" d="M49.1,98.7c1.6,0,2.9,1.2,2.9,2.9c0,1.7-1.3,2.9-2.9,2.9s-2.9-1.3-2.9-2.9C46.2,99.9,47.5,98.7,49.1,98.7z
				 M49.1,103.8c1.2,0,2.2-0.9,2.2-2.2c0-1.3-1-2.2-2.2-2.2c-1.2,0-2.1,0.9-2.1,2.2C47,102.9,47.9,103.8,49.1,103.8z"/>
		</g>
		<g>
			<path class="st1" d="M53.4,98.8h0.7v0.6c0,0.2,0,0.4,0,0.4h0c0.3-0.7,1.1-1.1,1.9-1.1c1.5,0,2.4,1.2,2.4,2.9c0,1.8-1,2.9-2.5,2.9
				c-0.8,0-1.5-0.4-1.8-1.1h0c0,0,0,0.2,0,0.5v2.7h-0.7V98.8z M55.9,103.8c1,0,1.8-0.8,1.8-2.2c0-1.4-0.7-2.2-1.8-2.2
				c-0.9,0-1.8,0.7-1.8,2.2C54.1,102.7,54.8,103.8,55.9,103.8z"/>
		</g>
		<g>
			<path class="st1" d="M62.4,98.7c1.6,0,2.9,1.2,2.9,2.9c0,1.7-1.3,2.9-2.9,2.9s-2.9-1.3-2.9-2.9C59.5,99.9,60.8,98.7,62.4,98.7z
				 M62.4,103.8c1.2,0,2.2-0.9,2.2-2.2c0-1.3-1-2.2-2.2-2.2c-1.2,0-2.1,0.9-2.1,2.2C60.3,102.9,61.3,103.8,62.4,103.8z"/>
		</g>
		<g>
			<path class="st1" d="M69.3,98.7c0.7,0,1.5,0.3,2,0.8l-0.4,0.6c-0.4-0.4-1-0.7-1.6-0.7c-1.2,0-2.2,0.9-2.2,2.2
				c0,1.3,0.9,2.2,2.2,2.2c0.6,0,1.3-0.3,1.8-0.8l0.3,0.6c-0.5,0.5-1.3,0.9-2.2,0.9c-1.6,0-2.9-1.2-2.9-2.9
				C66.4,99.9,67.7,98.7,69.3,98.7z"/>
		</g>
		<g>
			<path class="st1" d="M72.1,103.7c0.9-0.1,1.3-1.2,1.3-3.2v-1.7h3.4v5.5H76v-4.9h-1.9v1c0,2.6-0.6,3.8-2,3.9V103.7z"/>
		</g>
		<g>
			<path class="st1" d="M78.6,98.8h0.7v3.6c0,0.3,0,0.8,0,0.8h0c0,0,0.4-0.5,0.6-0.8l2.7-3.6h0.7v5.5h-0.7v-3.6c0-0.3,0-0.8,0-0.8h0
				c0,0.1-0.4,0.5-0.6,0.8l-2.7,3.6h-0.7V98.8z"/>
		</g>
		<g>
			<path class="st1" d="M85.1,98.8h0.7v3.6c0,0.3,0,0.8,0,0.8h0c0,0,0.4-0.5,0.6-0.8l2.7-3.6h0.7v5.5H89v-3.6c0-0.3,0-0.8,0-0.8h0
				c0,0.1-0.4,0.5-0.6,0.8l-2.7,3.6h-0.7V98.8z M86,96.8v-0.2h0.6v0.2c0,0.5,0.4,0.8,0.8,0.8c0.4,0,0.8-0.3,0.8-0.8v-0.2h0.6v0.2
				c0,0.8-0.7,1.3-1.5,1.3S86,97.6,86,96.8z"/>
		</g>
	</g>
</g>
<g>
	<path class="st1" d="M85,35.4v32.8H43.8V35.4H85 M87,33.4H41.8v36.8H87V33.4L87,33.4z"/>
</g>
<g>
	<g>
		<g>
			<g>
				<line class="st2" x1="91.7" y1="23.4" x2="91.7" y2="80.1"/>
			</g>
			<g>
				<g>
					<line class="st3" x1="88.8" y1="23.4" x2="88.8" y2="25.4"/>
					<line class="st4" x1="88.8" y1="29.5" x2="88.8" y2="76.1"/>
					<line class="st3" x1="88.8" y1="78.1" x2="88.8" y2="80.1"/>
				</g>
			</g>
			<g>
				<line class="st2" x1="86" y1="23.4" x2="86" y2="80.1"/>
			</g>
		</g>
	</g>
	<g>
		<g>
			<g>
				<line class="st2" x1="37.1" y1="23.4" x2="37.1" y2="80.1"/>
			</g>
			<g>
				<g>
					<line class="st3" x1="40" y1="23.4" x2="40" y2="25.4"/>
					<line class="st4" x1="40" y1="29.5" x2="40" y2="76.1"/>
					<line class="st3" x1="40" y1="78.1" x2="40" y2="80.1"/>
				</g>
			</g>
			<g>
				<line class="st2" x1="42.8" y1="23.4" x2="42.8" y2="80.1"/>
			</g>
		</g>
	</g>
</g>
<path class="st5" d="M58.9,46.2v12c0,0.8,0.8,1.2,1.5,0.9l10.5-6c0.7-0.4,0.7-1.4,0-1.7l-10.5-6C59.7,45,58.9,45.4,58.9,46.2z"/>
</svg>
