<?xml version="1.0" encoding="UTF-8" standalone="no"?>
<svg
   xmlns:dc="http://purl.org/dc/elements/1.1/"
   xmlns:cc="http://creativecommons.org/ns#"
   xmlns:rdf="http://www.w3.org/1999/02/22-rdf-syntax-ns#"
   xmlns:svg="http://www.w3.org/2000/svg"
   xmlns="http://www.w3.org/2000/svg"
   viewBox="0 0 81.601372 71.223"
   height="71.223"
   width="81.601372"
   xml:space="preserve"
   version="1.1"
   id="svg3444"><metadata
     id="metadata3450"><rdf:RDF><cc:Work
         rdf:about=""><dc:format>image/svg+xml</dc:format><dc:type
           rdf:resource="http://purl.org/dc/dcmitype/StillImage" /><dc:title></dc:title></cc:Work></rdf:RDF></metadata><defs
     id="defs3448"><clipPath
       id="clipPath3458"
       clipPathUnits="userSpaceOnUse"><path
         id="path3460"
         d="m 0,56.978 65.281,0 L 65.281,0 0,0 0,56.978 Z" /></clipPath></defs><g
     transform="matrix(1.25,0,0,-1.25,0,71.223)"
     id="g3452"><g
       id="g3454"><g
         clip-path="url(#clipPath3458)"
         id="g3456"><g
           transform="translate(37.9906,20.2574)"
           id="g3462"><path
             id="path3464"
             style="fill:#ffffff;fill-opacity:1;fill-rule:nonzero;stroke:none"
             d="m 0,0 0.902,7.863 5.247,0 L 4.593,0 0,0 Z m -28.993,7.863 5.943,0 1.034,-7.863 -5.412,0 -1.565,7.863 z m 3.525,12.373 1.462,-7.873 -6.435,0 -2.211,7.873 7.184,0 z m 16.676,-7.873 0,7.873 7.228,0 -1.275,-7.873 -5.953,0 z m -10.615,0 -1.461,7.873 7.576,0 0,-7.873 -6.115,0 z M -17.416,0 l -1.034,7.863 5.158,0 0,-7.863 -4.124,0 z m 8.624,0 0,7.863 5.118,0 L -4.576,0 -8.792,0 Z m 16.382,12.363 -5.853,0 1.275,7.873 6.779,0 -2.201,-7.873 z m 17.451,24.358 -9.012,0 c -0.98,0 -1.847,-0.632 -2.142,-1.564 l -2.656,-10.42 -34.863,0 c -0.017,0 -0.034,0 -0.051,0 l -12.058,0 c -0.718,0 -1.395,-0.343 -1.82,-0.926 -0.421,-0.58 -0.541,-1.33 -0.322,-2.013 l 6.671,-24.736 c 0.3,-0.932 1.164,-1.562 2.143,-1.562 l 35.306,0 c 0.978,0 1.846,0.633 2.142,1.564 l 2.922,12.129 c 0.07,0.157 0.124,0.321 0.157,0.493 l 3.445,11.76 c 0.117,0.223 0.196,0.469 0.234,0.727 l 2.536,10.048 7.368,0 c 1.242,0 2.25,1.008 2.25,2.25 0,1.242 -1.008,2.25 -2.25,2.25" /></g><g
           transform="translate(23.1142,6.0533)"
           id="g3466"><path
             id="path3468"
             style="fill:#ffffff;fill-opacity:1;fill-rule:nonzero;stroke:none"
             d="m 0,0 c 0,-3.343 -2.71,-6.053 -6.053,-6.053 -3.343,0 -6.054,2.71 -6.054,6.053 0,3.343 2.711,6.053 6.054,6.053 C -2.71,6.053 0,3.343 0,0" /></g><g
           transform="translate(41.781,6.0533)"
           id="g3470"><path
             id="path3472"
             style="fill:#ffffff;fill-opacity:1;fill-rule:nonzero;stroke:none"
             d="m 0,0 c 0,-3.343 -2.71,-6.053 -6.053,-6.053 -3.343,0 -6.054,2.71 -6.054,6.053 0,3.343 2.711,6.053 6.054,6.053 C -2.71,6.053 0,3.343 0,0" /></g></g></g></g></svg>