<?xml version="1.0" encoding="UTF-8" standalone="no"?>
<!-- Created with Inkscape (http://www.inkscape.org/) -->

<svg
   xmlns:dc="http://purl.org/dc/elements/1.1/"
   xmlns:cc="http://creativecommons.org/ns#"
   xmlns:rdf="http://www.w3.org/1999/02/22-rdf-syntax-ns#"
   xmlns:svg="http://www.w3.org/2000/svg"
   xmlns="http://www.w3.org/2000/svg"
   xmlns:sodipodi="http://sodipodi.sourceforge.net/DTD/sodipodi-0.dtd"
   xmlns:inkscape="http://www.inkscape.org/namespaces/inkscape"
   id="svg2"
   version="1.1"
   inkscape:version="0.91 r13725"
   xml:space="preserve"
   width="66.619247"
   height="70.920624"
   viewBox="0 0 66.619247 70.920624"
   sodipodi:docname="channels.svg"><metadata
     id="metadata8"><rdf:RDF><cc:Work
         rdf:about=""><dc:format>image/svg+xml</dc:format><dc:type
           rdf:resource="http://purl.org/dc/dcmitype/StillImage" /><dc:title></dc:title></cc:Work></rdf:RDF></metadata><defs
     id="defs6"><clipPath
       clipPathUnits="userSpaceOnUse"
       id="clipPath16"><path
         d="m 0,56.736 53.295,0 L 53.295,0 0,0 0,56.736 Z"
         id="path18"
         inkscape:connector-curvature="0" /></clipPath></defs><sodipodi:namedview
     pagecolor="#ffffff"
     bordercolor="#666666"
     borderopacity="1"
     objecttolerance="10"
     gridtolerance="10"
     guidetolerance="10"
     inkscape:pageopacity="0"
     inkscape:pageshadow="2"
     inkscape:window-width="640"
     inkscape:window-height="480"
     id="namedview4"
     showgrid="false"
     inkscape:zoom="3.3276639"
     inkscape:cx="33.309624"
     inkscape:cy="35.460312"
     inkscape:window-x="65"
     inkscape:window-y="24"
     inkscape:window-maximized="0"
     inkscape:current-layer="g10" /><g
     id="g10"
     inkscape:groupmode="layer"
     inkscape:label="channels"
     transform="matrix(1.25,0,0,-1.25,0,70.920625)"><g
       id="g12"><g
         id="g14"
         clip-path="url(#clipPath16)"><g
           id="g20"
           transform="translate(22.8481,43.7841)"><path
             d="m 0,0 12.995,-23.884 c -0.141,0.057 -0.29,0.125 -0.395,0.174 -0.14,0.066 -0.274,0.128 -0.399,0.179 -0.158,0.064 -0.614,0.41 -1.015,0.716 -1.036,0.787 -2.601,1.978 -4.628,2.855 -3.025,1.311 -5.059,0.093 -5.88,-1.347 -0.516,-0.904 -0.489,-1.75 0.069,-2.156 1.379,-1.007 3.889,-3.841 5.388,-5.535 0.471,-0.532 0.864,-0.975 1.127,-1.257 0.277,-0.417 0.565,-0.908 0.869,-1.426 0.182,-0.31 0.373,-0.635 0.574,-0.967 L 2.615,-35.962 -13.079,-7.116 0,0 Z m 2.09,-22.327 c 0.103,0.238 0.341,0.611 0.782,0.882 0.753,0.463 1.791,0.429 3.003,-0.094 1.834,-0.795 3.242,-1.865 4.269,-2.646 0.626,-0.477 1.04,-0.792 1.413,-0.942 0.097,-0.04 0.202,-0.089 0.312,-0.141 0.558,-0.261 1.311,-0.606 2.052,-0.317 0.04,0.016 0.081,0.026 0.122,0.046 0.502,0.247 0.82,0.719 0.977,1.42 0.008,0.038 -10e-4,0.073 0.002,0.111 l -0.449,0.826 -4.991,9.172 c 2.404,-0.719 8.028,-2.513 11.183,-4.438 1.457,-0.888 3.76,-6.851 5.058,-11.867 0.052,-0.197 0.17,-0.369 0.336,-0.487 l 2.308,-1.635 -5.019,-9.285 -4.817,2.892 c -0.05,0.031 -0.103,0.056 -0.159,0.075 -3.76,1.314 -5.845,3.406 -7.311,5.484 -0.343,0.486 -0.655,0.971 -0.943,1.446 -0.21,0.345 -0.41,0.685 -0.603,1.015 -0.331,0.565 -0.645,1.1 -0.964,1.573 -0.026,0.039 -0.055,0.075 -0.087,0.109 -0.255,0.27 -0.653,0.721 -1.141,1.271 -1.531,1.73 -3.792,4.285 -5.333,5.53 m -17.599,16.075 17.435,-32.044 7.714,4.197 c 1.59,-2.298 3.927,-4.744 8.181,-6.251 l 5.513,-3.311 c 0.202,-0.121 0.444,-0.155 0.671,-0.093 0.064,0.018 0.126,0.043 0.183,0.074 0.146,0.08 0.266,0.2 0.346,0.347 l 5.81,10.749 c 0.207,0.383 0.095,0.86 -0.26,1.111 l -2.676,1.895 c -0.494,1.835 -3.065,10.965 -5.746,12.6 -4.271,2.605 -12.427,4.867 -12.773,4.962 -0.134,0.037 -0.267,0.031 -0.395,0.005 L 0.594,2.51 -15.509,-6.252 Z"
             style="fill:#229fff;fill-opacity:1;fill-rule:nonzero;stroke:none"
             id="path22"
             inkscape:connector-curvature="0" /></g><g
           id="g24"
           transform="translate(16.6959,32.104)"><path
             d="M 0,0 C -0.041,-1.397 0.677,-2.718 1.873,-3.442 L 1.382,-5.104 c -2.078,1.042 -3.298,3.284 -3.045,5.595 L 0,0 Z"
             style="fill:#229fff;fill-opacity:1;fill-rule:nonzero;stroke:none"
             id="path26"
             inkscape:connector-curvature="0" /></g><g
           id="g28"
           transform="translate(20.6973,35.8724)"><path
             d="m 0,0 c -1.397,0.041 -2.718,-0.677 -3.442,-1.873 l -1.662,0.491 c 1.042,2.078 3.284,3.298 5.595,3.044 L 0,0 Z"
             style="fill:#229fff;fill-opacity:1;fill-rule:nonzero;stroke:none"
             id="path30"
             inkscape:connector-curvature="0" /></g><g
           id="g32"
           transform="translate(24.4657,31.871)"><path
             d="m 0,0 c 0.041,1.397 -0.677,2.718 -1.873,3.442 l 0.491,1.662 C 0.696,4.062 1.916,1.82 1.663,-0.491 L 0,0 Z"
             style="fill:#229fff;fill-opacity:1;fill-rule:nonzero;stroke:none"
             id="path34"
             inkscape:connector-curvature="0" /></g><g
           id="g36"
           transform="translate(20.4642,28.1026)"><path
             d="M 0,0 C 1.397,-0.041 2.718,0.677 3.442,1.873 L 5.104,1.382 C 4.062,-0.696 1.82,-1.916 -0.491,-1.662 L 0,0 Z"
             style="fill:#229fff;fill-opacity:1;fill-rule:nonzero;stroke:none"
             id="path38"
             inkscape:connector-curvature="0" /></g><g
           id="g40"
           transform="translate(18.7801,31.0077)"><path
             d="M 0,0 C 0.541,-0.994 1.786,-1.362 2.78,-0.821 3.775,-0.28 4.142,0.965 3.601,1.96 3.06,2.954 1.815,3.322 0.821,2.78 -0.174,2.239 -0.541,0.994 0,0"
             style="fill:#229fff;fill-opacity:1;fill-rule:nonzero;stroke:none"
             id="path42"
             inkscape:connector-curvature="0" /></g><g
           id="g44"
           transform="translate(0.0213,44.066)"><path
             d="m 0,0 c -0.092,-0.378 0.125,-0.816 0.484,-0.981 0.191,-0.085 0.385,-0.078 0.538,0.006 0.134,0.072 0.238,0.203 0.281,0.381 1.097,4.474 3.73,8.042 7.413,10.045 3.664,1.994 8.068,2.274 12.401,0.787 0.367,-0.124 0.71,0.091 0.766,0.483 0.057,0.391 -0.193,0.811 -0.563,0.938 -4.661,1.596 -9.4,1.296 -13.343,-0.85 C 4.013,8.652 1.18,4.815 0,0 M 10.029,7.037 C 7.244,5.522 5.259,2.817 4.443,-0.575 4.351,-0.954 4.57,-1.391 4.931,-1.555 5.12,-1.64 5.313,-1.63 5.465,-1.548 c 0.136,0.074 0.239,0.206 0.282,0.385 0.734,3.051 2.516,5.479 5.021,6.842 2.493,1.357 5.489,1.539 8.437,0.512 0.367,-0.127 0.712,0.086 0.77,0.475 0.059,0.392 -0.191,0.814 -0.558,0.94 -3.28,1.144 -6.614,0.941 -9.388,-0.569 m 2.052,-3.771 c 1.574,0.856 3.467,0.969 5.333,0.315 C 17.78,3.454 18.03,3.032 17.972,2.642 17.912,2.252 17.568,2.039 17.2,2.168 15.668,2.704 14.112,2.611 12.82,1.908 11.5,1.19 10.569,-0.1 10.202,-1.722 10.16,-1.907 10.054,-2.041 9.916,-2.116 9.767,-2.198 9.58,-2.208 9.391,-2.126 c -0.362,0.157 -0.585,0.592 -0.498,0.974 0.447,1.974 1.58,3.544 3.188,4.418"
             style="fill:#229fff;fill-opacity:1;fill-rule:nonzero;stroke:none"
             id="path46"
             inkscape:connector-curvature="0" /></g></g></g></g></svg>