<?xml version="1.0" encoding="UTF-8" standalone="no"?>
<svg
   xmlns:dc="http://purl.org/dc/elements/1.1/"
   xmlns:cc="http://creativecommons.org/ns#"
   xmlns:rdf="http://www.w3.org/1999/02/22-rdf-syntax-ns#"
   xmlns:svg="http://www.w3.org/2000/svg"
   xmlns="http://www.w3.org/2000/svg"
   viewBox="0 0 48.857124 21.26"
   height="21.26"
   width="48.857124"
   xml:space="preserve"
   version="1.1"
   id="svg2"><metadata
     id="metadata8"><rdf:RDF><cc:Work
         rdf:about=""><dc:format>image/svg+xml</dc:format><dc:type
           rdf:resource="http://purl.org/dc/dcmitype/StillImage" /><dc:title></dc:title></cc:Work></rdf:RDF></metadata><defs
     id="defs6"><clipPath
       id="clipPath16"
       clipPathUnits="userSpaceOnUse"><path
         id="path18"
         d="m 0,17.008 39.086,0 L 39.086,0 0,0 0,17.008 Z" /></clipPath></defs><g
     transform="matrix(1.25,0,0,-1.25,0,21.26)"
     id="g10"><g
       id="g12"><g
         clip-path="url(#clipPath16)"
         id="g14"><g
           transform="translate(17.072,8.535)"
           id="g20"><path
             id="path22"
             style="fill:#fdda24;fill-opacity:1;fill-rule:nonzero;stroke:none"
             d="m 0,0 c 0,4.749 -3.785,8.473 -8.6,8.473 -4.619,0 -8.472,-3.724 -8.472,-8.473 0,-4.813 3.853,-8.535 8.472,-8.535 4.815,0 8.6,3.722 8.6,8.535" /></g><g
           transform="translate(39.0857,8.535)"
           id="g24"><path
             id="path26"
             style="fill:#fdda24;fill-opacity:1;fill-rule:nonzero;stroke:none"
             d="m 0,0 c 0,4.749 -3.852,8.473 -8.6,8.473 -4.687,0 -8.47,-3.724 -8.47,-8.473 0,-4.813 3.783,-8.535 8.47,-8.535 4.748,0 8.6,3.722 8.6,8.535" /></g></g></g></g></svg>