<?xml version="1.0" encoding="UTF-8" standalone="no"?>
<svg
   xmlns:dc="http://purl.org/dc/elements/1.1/"
   xmlns:cc="http://creativecommons.org/ns#"
   xmlns:rdf="http://www.w3.org/1999/02/22-rdf-syntax-ns#"
   xmlns:svg="http://www.w3.org/2000/svg"
   xmlns="http://www.w3.org/2000/svg"
   viewBox="0 0 39.797874 37.862125"
   height="37.862125"
   width="39.797874"
   xml:space="preserve"
   version="1.1"
   id="svg2"><metadata
     id="metadata8"><rdf:RDF><cc:Work
         rdf:about=""><dc:format>image/svg+xml</dc:format><dc:type
           rdf:resource="http://purl.org/dc/dcmitype/StillImage" /><dc:title></dc:title></cc:Work></rdf:RDF></metadata><defs
     id="defs6"><clipPath
       id="clipPath16"
       clipPathUnits="userSpaceOnUse"><path
         id="path18"
         d="m 0,30.29 31.838,0 L 31.838,0 0,0 0,30.29 Z" /></clipPath></defs><g
     transform="matrix(1.25,0,0,-1.25,0,37.862125)"
     id="g10"><g
       id="g12"><g
         clip-path="url(#clipPath16)"
         id="g14"><g
           transform="translate(2.1816,19.5313)"
           id="g20"><path
             id="path22"
             style="fill:#ffffff;fill-opacity:1;fill-rule:nonzero;stroke:none"
             d="m 0,0 c -0.522,0 -0.946,-0.424 -0.946,-0.946 l 0,-11.478 c 0,-0.522 0.424,-0.946 0.946,-0.946 l 2.544,0 c 0.202,0 0.367,-0.165 0.367,-0.368 l 0,-4.166 5.639,4.455 c 0.065,0.051 0.146,0.079 0.228,0.079 l 8.298,0 c 0.522,0 0.946,0.424 0.946,0.946 l 0,11.478 C 18.022,-0.424 17.598,0 17.076,0 L 0,0 Z m 2.544,-19.031 c -0.056,0 -0.111,0.012 -0.16,0.036 -0.128,0.062 -0.208,0.189 -0.208,0.332 l 0,4.558 -2.176,0 c -0.927,0 -1.682,0.754 -1.682,1.681 l 0,11.478 c 0,0.927 0.755,1.681 1.682,1.681 l 17.076,0 c 0.927,0 1.681,-0.754 1.681,-1.681 l 0,-11.478 c 0,-0.927 -0.754,-1.681 -1.681,-1.681 l -8.17,0 -6.134,-4.847 c -0.065,-0.051 -0.146,-0.079 -0.228,-0.079" /></g><g
           transform="translate(2.1816,19.5313)"
           id="g24"><path
             id="path26"
             style="fill:#ffffff;fill-opacity:1;fill-rule:nonzero;stroke:none"
             d="m 0,0 c -0.522,0 -0.946,-0.424 -0.946,-0.946 l 0,-11.478 c 0,-0.522 0.424,-0.946 0.946,-0.946 l 2.544,0 c 0.202,0 0.367,-0.165 0.367,-0.368 l 0,-4.166 5.639,4.455 c 0.065,0.051 0.146,0.079 0.228,0.079 l 8.298,0 c 0.522,0 0.946,0.424 0.946,0.946 l 0,11.478 C 18.022,-0.424 17.598,0 17.076,0 L 0,0 Z m 2.544,-19.031 c -0.056,0 -0.111,0.012 -0.16,0.036 -0.128,0.062 -0.208,0.189 -0.208,0.332 l 0,4.558 -2.176,0 c -0.927,0 -1.682,0.754 -1.682,1.681 l 0,11.478 c 0,0.927 0.755,1.681 1.682,1.681 l 17.076,0 c 0.927,0 1.681,-0.754 1.681,-1.681 l 0,-11.478 c 0,-0.927 -0.754,-1.681 -1.681,-1.681 l -8.17,0 -6.134,-4.847 c -0.065,-0.051 -0.146,-0.079 -0.228,-0.079 z" /></g><g
           transform="translate(27.1131,10.0234)"
           id="g28"><path
             id="path30"
             style="fill:#ffffff;fill-opacity:1;fill-rule:nonzero;stroke:none"
             d="m 0,0 c -0.082,0 -0.163,0.028 -0.228,0.079 l -6.233,4.926 c -0.077,0.061 -0.126,0.147 -0.137,0.245 -0.012,0.098 0.016,0.194 0.077,0.272 0.07,0.088 0.175,0.139 0.288,0.139 0.084,0 0.162,-0.027 0.228,-0.079 l 5.638,-4.455 0,4.166 c 0,0.203 0.164,0.368 0.367,0.368 l 2.544,0 c 0.521,0 0.946,0.424 0.946,0.946 l 0,11.478 c 0,0.521 -0.425,0.946 -0.946,0.946 l -17.076,0 c -0.522,0 -0.946,-0.425 -0.946,-0.946 l 0,-7.881 c 0,-0.203 -0.165,-0.368 -0.368,-0.368 -0.203,0 -0.368,0.165 -0.368,0.368 l 0,7.881 c 0,0.927 0.755,1.681 1.682,1.681 l 17.076,0 c 0.927,0 1.681,-0.754 1.681,-1.681 l 0,-11.478 C 4.225,5.68 3.471,4.926 2.544,4.926 l -2.176,0 0,-4.559 C 0.368,0.225 0.288,0.098 0.16,0.036 0.111,0.013 0.055,0 0,0" /></g><g
           transform="translate(27.1131,10.0234)"
           id="g32"><path
             id="path34"
             style="fill:#ffffff;fill-opacity:1;fill-rule:nonzero;stroke:none"
             d="m 0,0 c -0.082,0 -0.163,0.028 -0.228,0.079 l -6.233,4.926 c -0.077,0.061 -0.126,0.147 -0.137,0.245 -0.012,0.098 0.016,0.194 0.077,0.272 0.07,0.088 0.175,0.139 0.288,0.139 0.084,0 0.162,-0.027 0.228,-0.079 l 5.638,-4.455 0,4.166 c 0,0.203 0.164,0.368 0.367,0.368 l 2.544,0 c 0.521,0 0.946,0.424 0.946,0.946 l 0,11.478 c 0,0.521 -0.425,0.946 -0.946,0.946 l -17.076,0 c -0.522,0 -0.946,-0.425 -0.946,-0.946 l 0,-7.881 c 0,-0.203 -0.165,-0.368 -0.368,-0.368 -0.203,0 -0.368,0.165 -0.368,0.368 l 0,7.881 c 0,0.927 0.755,1.681 1.682,1.681 l 17.076,0 c 0.927,0 1.681,-0.754 1.681,-1.681 l 0,-11.478 C 4.225,5.68 3.471,4.926 2.544,4.926 l -2.176,0 0,-4.559 C 0.368,0.225 0.288,0.098 0.16,0.036 0.111,0.013 0.055,0 0,0 Z" /></g></g></g></g></svg>
