<?xml version="1.0" encoding="UTF-8" standalone="no"?>
<svg
   xmlns:dc="http://purl.org/dc/elements/1.1/"
   xmlns:cc="http://creativecommons.org/ns#"
   xmlns:rdf="http://www.w3.org/1999/02/22-rdf-syntax-ns#"
   xmlns:svg="http://www.w3.org/2000/svg"
   xmlns="http://www.w3.org/2000/svg"
   viewBox="0 0 26.662251 31.12925"
   height="31.12925"
   width="26.662251"
   xml:space="preserve"
   version="1.1"
   id="svg2"><metadata
     id="metadata8"><rdf:RDF><cc:Work
         rdf:about=""><dc:format>image/svg+xml</dc:format><dc:type
           rdf:resource="http://purl.org/dc/dcmitype/StillImage" /><dc:title></dc:title></cc:Work></rdf:RDF></metadata><defs
     id="defs6"><clipPath
       id="clipPath16"
       clipPathUnits="userSpaceOnUse"><path
         id="path18"
         d="m 0,24.903 21.33,0 L 21.33,0 0,0 0,24.903 Z" /></clipPath></defs><g
     transform="matrix(1.25,0,0,-1.25,0,31.12925)"
     id="g10"><g
       id="g12"><g
         clip-path="url(#clipPath16)"
         id="g14"><g
           transform="translate(10.6639,23.7675)"
           id="g20"><path
             id="path22"
             style="fill:#ffffff;fill-opacity:1;fill-rule:nonzero;stroke:none"
             d="M 0,0 C 0.96,0 1.741,-0.781 1.741,-1.741 1.741,-2.7 0.96,-3.48 0,-3.48 c -0.959,0 -1.739,0.78 -1.739,1.739 C -1.739,-0.781 -0.959,0 0,0 m 0,-4.366 c 1.451,0 2.627,1.175 2.627,2.625 0,1.453 -1.176,2.627 -2.627,2.627 -1.449,0 -2.625,-1.174 -2.625,-2.627 0,-1.45 1.176,-2.625 2.625,-2.625" /></g><g
           transform="translate(10.6639,23.7675)"
           id="g24"><path
             id="path26"
             style="fill:#ffffff;fill-opacity:1;fill-rule:nonzero;stroke:none"
             d="M 0,0 C 0.96,0 1.741,-0.781 1.741,-1.741 1.741,-2.7 0.96,-3.48 0,-3.48 c -0.959,0 -1.739,0.78 -1.739,1.739 C -1.739,-0.781 -0.959,0 0,0 Z m 0,-4.366 c 1.451,0 2.627,1.175 2.627,2.625 0,1.453 -1.176,2.627 -2.627,2.627 -1.449,0 -2.625,-1.174 -2.625,-2.627 0,-1.45 1.176,-2.625 2.625,-2.625 z" /></g><g
           transform="translate(3.7712,21.5004)"
           id="g28"><path
             id="path30"
             style="fill:#ffffff;fill-opacity:1;fill-rule:nonzero;stroke:none"
             d="m 0,0 c 0.694,0 1.259,-0.565 1.259,-1.259 0,-0.694 -0.565,-1.258 -1.259,-1.258 -0.694,0 -1.259,0.564 -1.259,1.258 C -1.259,-0.565 -0.694,0 0,0 m 0,-3.403 c 1.184,0 2.145,0.96 2.145,2.144 0,1.186 -0.961,2.145 -2.145,2.145 -1.182,0 -2.145,-0.959 -2.145,-2.145 0,-1.184 0.963,-2.144 2.145,-2.144" /></g><g
           transform="translate(3.7712,21.5004)"
           id="g32"><path
             id="path34"
             style="fill:#ffffff;fill-opacity:1;fill-rule:nonzero;stroke:none"
             d="m 0,0 c 0.694,0 1.259,-0.565 1.259,-1.259 0,-0.694 -0.565,-1.258 -1.259,-1.258 -0.694,0 -1.259,0.564 -1.259,1.258 C -1.259,-0.565 -0.694,0 0,0 Z m 0,-3.403 c 1.184,0 2.145,0.96 2.145,2.144 0,1.186 -0.961,2.145 -2.145,2.145 -1.182,0 -2.145,-0.959 -2.145,-2.145 0,-1.184 0.963,-2.144 2.145,-2.144 z" /></g><g
           transform="translate(17.5566,21.5004)"
           id="g36"><path
             id="path38"
             style="fill:#ffffff;fill-opacity:1;fill-rule:nonzero;stroke:none"
             d="m 0,0 c 0.694,0 1.259,-0.565 1.259,-1.259 0,-0.694 -0.565,-1.258 -1.259,-1.258 -0.694,0 -1.259,0.564 -1.259,1.258 C -1.259,-0.565 -0.694,0 0,0 m 0,-3.403 c 1.186,0 2.145,0.96 2.145,2.144 0,1.186 -0.959,2.145 -2.145,2.145 -1.182,0 -2.145,-0.959 -2.145,-2.145 0,-1.184 0.963,-2.144 2.145,-2.144" /></g><g
           transform="translate(17.5566,21.5004)"
           id="g40"><path
             id="path42"
             style="fill:#ffffff;fill-opacity:1;fill-rule:nonzero;stroke:none"
             d="m 0,0 c 0.694,0 1.259,-0.565 1.259,-1.259 0,-0.694 -0.565,-1.258 -1.259,-1.258 -0.694,0 -1.259,0.564 -1.259,1.258 C -1.259,-0.565 -0.694,0 0,0 Z m 0,-3.403 c 1.186,0 2.145,0.96 2.145,2.144 0,1.186 -0.959,2.145 -2.145,2.145 -1.182,0 -2.145,-0.959 -2.145,-2.145 0,-1.184 0.963,-2.144 2.145,-2.144 z" /></g><g
           transform="translate(20.1939,9.8232)"
           id="g44"><path
             id="path46"
             style="fill:#ffffff;fill-opacity:1;fill-rule:nonzero;stroke:none"
             d="m 0,0 -0.72,0 -0.886,0 0,-0.886 0,-5.596 -2.059,0 0,5.596 0,0.886 -0.885,0 -0.665,0 0,5.656 c 0.17,0.61 0.726,1.061 1.39,1.061 l 2.372,0 C -0.652,6.717 0,6.068 0,5.27 L 0,0 Z m -6.038,-0.816 -1.147,0 -0.822,0 0,-0.822 0,-6.981 c 0,-0.069 -0.064,-0.132 -0.133,-0.132 l -2.776,0 c -0.07,0 -0.134,0.063 -0.134,0.132 l 0,6.981 0,0.822 -0.823,0 -1.147,0 0,6.716 c 0,1.122 0.913,2.036 2.036,2.036 l 2.905,0 c 1.125,0 2.041,-0.914 2.041,-2.036 l 0,-6.716 z M -14.507,0 l -0.886,0 0,-0.886 0,-5.596 -2.057,0 0,5.596 0,0.886 -0.886,0 -0.722,0 0,5.27 c 0,0.798 0.649,1.447 1.447,1.447 l 2.372,0 c 0.668,0 1.226,-0.451 1.397,-1.062 l 0,-5.655 -0.665,0 z m 13.054,7.603 -2.372,0 c -0.619,0 -1.182,-0.246 -1.601,-0.642 -0.426,1.05 -1.456,1.797 -2.653,1.797 l -2.905,0 c -1.199,0 -2.227,-0.749 -2.649,-1.8 -0.421,0.397 -0.984,0.645 -1.606,0.645 l -2.372,0 c -1.285,0 -2.333,-1.048 -2.333,-2.333 l 0,-6.156 1.608,0 0,-5.701 c 0,-0.429 0.352,-0.781 0.78,-0.781 l 2.269,0 c 0.428,0 0.78,0.352 0.78,0.781 l 0,5.701 0.665,0 0,-0.752 1.969,0 0,-6.981 c 0,-0.523 0.432,-0.954 0.957,-0.954 l 2.776,0 c 0.525,0 0.955,0.431 0.955,0.954 l 0,6.981 1.97,0 0,0.752 0.665,0 0,-5.701 c 0,-0.429 0.349,-0.781 0.779,-0.781 l 2.267,0 c 0.432,0 0.784,0.352 0.784,0.781 l 0,5.701 1.606,0 0,6.156 c 0,1.285 -1.054,2.333 -2.339,2.333" /></g><g
           transform="translate(20.1939,9.8232)"
           id="g48"><path
             id="path50"
             style="fill:#ffffff;fill-opacity:1;fill-rule:nonzero;stroke:none"
             d="m 0,0 -0.72,0 -0.886,0 0,-0.886 0,-5.596 -2.059,0 0,5.596 0,0.886 -0.885,0 -0.665,0 0,5.656 c 0.17,0.61 0.726,1.061 1.39,1.061 l 2.372,0 C -0.652,6.717 0,6.068 0,5.27 L 0,0 Z m -6.038,-0.816 -1.147,0 -0.822,0 0,-0.822 0,-6.981 c 0,-0.069 -0.064,-0.132 -0.133,-0.132 l -2.776,0 c -0.07,0 -0.134,0.063 -0.134,0.132 l 0,6.981 0,0.822 -0.823,0 -1.147,0 0,6.716 c 0,1.122 0.913,2.036 2.036,2.036 l 2.905,0 c 1.125,0 2.041,-0.914 2.041,-2.036 l 0,-6.716 z M -14.507,0 l -0.886,0 0,-0.886 0,-5.596 -2.057,0 0,5.596 0,0.886 -0.886,0 -0.722,0 0,5.27 c 0,0.798 0.649,1.447 1.447,1.447 l 2.372,0 c 0.668,0 1.226,-0.451 1.397,-1.062 l 0,-5.655 -0.665,0 z m 13.054,7.603 -2.372,0 c -0.619,0 -1.182,-0.246 -1.601,-0.642 -0.426,1.05 -1.456,1.797 -2.653,1.797 l -2.905,0 c -1.199,0 -2.227,-0.749 -2.649,-1.8 -0.421,0.397 -0.984,0.645 -1.606,0.645 l -2.372,0 c -1.285,0 -2.333,-1.048 -2.333,-2.333 l 0,-6.156 1.608,0 0,-5.701 c 0,-0.429 0.352,-0.781 0.78,-0.781 l 2.269,0 c 0.428,0 0.78,0.352 0.78,0.781 l 0,5.701 0.665,0 0,-0.752 1.969,0 0,-6.981 c 0,-0.523 0.432,-0.954 0.957,-0.954 l 2.776,0 c 0.525,0 0.955,0.431 0.955,0.954 l 0,6.981 1.97,0 0,0.752 0.665,0 0,-5.701 c 0,-0.429 0.349,-0.781 0.779,-0.781 l 2.267,0 c 0.432,0 0.784,0.352 0.784,0.781 l 0,5.701 1.606,0 0,6.156 c 0,1.285 -1.054,2.333 -2.339,2.333 z" /></g></g></g></g></svg>
