<?xml version="1.0" encoding="UTF-8" standalone="no"?>
<svg
   xmlns:dc="http://purl.org/dc/elements/1.1/"
   xmlns:cc="http://creativecommons.org/ns#"
   xmlns:rdf="http://www.w3.org/1999/02/22-rdf-syntax-ns#"
   xmlns:svg="http://www.w3.org/2000/svg"
   xmlns="http://www.w3.org/2000/svg"
   viewBox="0 0 70.485374 60.664501"
   height="60.664501"
   width="70.485374"
   xml:space="preserve"
   version="1.1"
   id="svg2"><metadata
     id="metadata8"><rdf:RDF><cc:Work
         rdf:about=""><dc:format>image/svg+xml</dc:format><dc:type
           rdf:resource="http://purl.org/dc/dcmitype/StillImage" /><dc:title></dc:title></cc:Work></rdf:RDF></metadata><defs
     id="defs6"><clipPath
       id="clipPath16"
       clipPathUnits="userSpaceOnUse"><path
         id="path18"
         d="m 0,48.532 56.388,0 L 56.388,0 0,0 0,48.532 Z" /></clipPath></defs><g
     transform="matrix(1.25,0,0,-1.25,0,60.6645)"
     id="g10"><g
       id="g12"><g
         clip-path="url(#clipPath16)"
         id="g14"><g
           transform="translate(53.7093,41.903)"
           id="g20"><path
             id="path22"
             style="fill:#fff;fill-opacity:1;fill-rule:nonzero;stroke:none"
             d="m 0,0 c 0,2.176 -1.773,3.947 -3.952,3.947 l -43.128,0 c -2.179,0 -3.952,-1.771 -3.952,-3.947 l 0,-35.27 c 0,-2.182 1.773,-3.957 3.952,-3.957 l 43.128,0 c 2.179,0 3.952,1.775 3.952,3.957 L 0,0 Z m -53.709,0 c 0,3.655 2.974,6.629 6.629,6.629 l 43.128,0 C -0.296,6.629 2.679,3.655 2.679,0 l 0,-35.27 c 0,-3.658 -2.975,-6.633 -6.631,-6.633 l -43.128,0 c -3.655,0 -6.629,2.975 -6.629,6.633 l 0,35.27 z" /></g><g
           transform="translate(16.4751,31.9287)"
           id="g24"><path
             id="path26"
             style="fill:#fff;fill-opacity:1;fill-rule:nonzero;stroke:none"
             d="m 0,0 2.516,0 0,-5.871 6.339,0 0,5.871 2.497,0 0,-13.849 -2.497,0 0,5.813 -6.339,0 0,-5.813 -2.516,0 L 0,0 Z" /></g><g
           transform="translate(35.7691,20.2449)"
           id="g28"><path
             id="path30"
             style="fill:#fff;fill-opacity:1;fill-rule:nonzero;stroke:none"
             d="M 0,0 C 2.809,0 4.603,1.658 4.603,4.779 4.603,7.861 2.77,9.519 0,9.519 l -2.068,0 L -2.068,0 0,0 Z m -4.584,11.684 4.721,0 c 4.271,0 7.061,-2.536 7.061,-6.905 0,-4.369 -2.79,-6.944 -7.061,-6.944 l -4.721,0 0,13.849 z" /></g></g></g></g></svg>
