<?xml version="1.0" encoding="UTF-8" standalone="no"?>
<svg
   xmlns:dc="http://purl.org/dc/elements/1.1/"
   xmlns:cc="http://creativecommons.org/ns#"
   xmlns:rdf="http://www.w3.org/1999/02/22-rdf-syntax-ns#"
   xmlns:svg="http://www.w3.org/2000/svg"
   xmlns="http://www.w3.org/2000/svg"
   viewBox="0 0 85.929001 124.02587"
   height="124.02587"
   width="85.929001"
   xml:space="preserve"
   version="1.1"
   id="svg2"><metadata
     id="metadata8"><rdf:RDF><cc:Work
         rdf:about=""><dc:format>image/svg+xml</dc:format><dc:type
           rdf:resource="http://purl.org/dc/dcmitype/StillImage" /><dc:title></dc:title></cc:Work></rdf:RDF></metadata><defs
     id="defs6"><clipPath
       id="clipPath16"
       clipPathUnits="userSpaceOnUse"><path
         id="path18"
         d="m 0,99.221 68.743,0 L 68.743,0 0,0 0,99.221 Z" /></clipPath></defs><g
     transform="matrix(1.25,0,0,-1.25,0,124.02587)"
     id="g10"><g
       id="g12"><g
         clip-path="url(#clipPath16)"
         id="g14"><g
           transform="translate(34.3711,99.2207)"
           id="g20"><path
             id="path22"
             style="fill:#000000;fill-opacity:1;fill-rule:nonzero;stroke:none"
             d="m 0,0 c -18.952,0 -34.371,-15.418 -34.371,-34.371 0,-4.794 1.409,-13.532 13.595,-33.983 6.232,-10.457 12.376,-19.089 12.635,-19.453 L 0,-99.221 8.143,-87.807 c 0.257,0.362 6.401,8.996 12.634,19.453 12.186,20.451 13.595,29.189 13.595,33.983 C 34.371,-15.418 18.952,0 0,0 M 0,-10 C 13.457,-10 24.371,-20.909 24.371,-34.371 24.371,-47.832 0,-82 0,-82 0,-82 -24.371,-47.832 -24.371,-34.371 -24.371,-20.909 -13.458,-10 0,-10" /></g><g
           transform="translate(44.3711,65.2207)"
           id="g24"><path
             id="path26"
             style="fill:#000000;fill-opacity:1;fill-rule:nonzero;stroke:none"
             d="m 0,0 c 0,-5.527 -4.466,-10 -10,-10 -5.527,0 -10,4.473 -10,10 0,5.531 4.473,10 10,10 C -4.466,10 0,5.531 0,0" /></g></g></g></g></svg>