<?xml version="1.0" encoding="UTF-8" standalone="no"?>
<svg
   xmlns:dc="http://purl.org/dc/elements/1.1/"
   xmlns:cc="http://creativecommons.org/ns#"
   xmlns:rdf="http://www.w3.org/1999/02/22-rdf-syntax-ns#"
   xmlns:svg="http://www.w3.org/2000/svg"
   xmlns="http://www.w3.org/2000/svg"
   viewBox="0 0 260.33124 54.154125"
   height="54.154125"
   width="260.33124"
   xml:space="preserve"
   version="1.1"
   id="svg2"><metadata
     id="metadata8"><rdf:RDF><cc:Work
         rdf:about=""><dc:format>image/svg+xml</dc:format><dc:type
           rdf:resource="http://purl.org/dc/dcmitype/StillImage" /><dc:title></dc:title></cc:Work></rdf:RDF></metadata><defs
     id="defs6"><clipPath
       id="clipPath16"
       clipPathUnits="userSpaceOnUse"><path
         id="path18"
         d="m 0,43.323 208.265,0 L 208.265,0 0,0 0,43.323 Z" /></clipPath></defs><g
     transform="matrix(1.25,0,0,-1.25,0,54.154125)"
     id="g10"><g
       id="g12"><g
         clip-path="url(#clipPath16)"
         id="g14"><g
           transform="translate(22.5389,26.8233)"
           id="g20"><path
             id="path22"
             style="fill:#ffffff;fill-opacity:1;fill-rule:nonzero;stroke:none"
             d="m 0,0 c -1.6,0 -2.9,1.3 -2.9,2.9 l 0,10.7 c 0,1.6 1.3,2.9 2.9,2.9 1.6,0 2.9,-1.3 2.9,-2.9 L 2.9,2.9 C 2.9,1.3 1.6,0 0,0" /></g><g
           transform="translate(15.7389,21.9233)"
           id="g24"><path
             id="path26"
             style="fill:#ffffff;fill-opacity:1;fill-rule:nonzero;stroke:none"
             d="m 0,0 c -0.5,-1.5 -2.1,-2.4 -3.6,-1.9 l -10.1,3.3 c -1.5,0.5 -2.4,2.1 -1.9,3.7 0.5,1.5 2.1,2.4 3.6,1.9 L -1.9,3.7 C -0.3,3.1 0.5,1.5 0,0" /></g><g
           transform="translate(29.2389,21.9233)"
           id="g28"><path
             id="path30"
             style="fill:#ffffff;fill-opacity:1;fill-rule:nonzero;stroke:none"
             d="m 0,0 c 0.5,-1.5 2.1,-2.4 3.6,-1.9 l 10.2,3.3 c 1.5,0.5 2.3,2.1 1.9,3.7 C 15.2,6.6 13.6,7.5 12.1,7 L 2,3.7 C 0.4,3.1 -0.4,1.5 0,0" /></g><g
           transform="translate(8.7389,0.5233)"
           id="g32"><path
             id="path34"
             style="fill:#ffffff;fill-opacity:1;fill-rule:nonzero;stroke:none"
             d="m 0,0 c -1.3,0.9 -1.6,2.8 -0.6,4.1 l 6.2,8.6 c 0.9,1.3 2.7,1.6 4,0.6 1.3,-0.9 1.6,-2.8 0.6,-4.1 L 4,0.6 C 3.1,-0.6 1.3,-0.9 0,0" /></g><g
           transform="translate(36.3389,0.5233)"
           id="g36"><path
             id="path38"
             style="fill:#ffffff;fill-opacity:1;fill-rule:nonzero;stroke:none"
             d="m 0,0 c 1.3,0.9 1.6,2.8 0.6,4.1 l -6.2,8.6 c -0.9,1.3 -2.7,1.6 -4,0.6 -1.3,-0.9 -1.6,-2.8 -0.6,-4.1 L -4,0.6 C -3.1,-0.6 -1.3,-0.9 0,0" /></g><g
           transform="translate(70.6389,25.9233)"
           id="g40"><path
             id="path42"
             style="fill:#ffffff;fill-opacity:1;fill-rule:nonzero;stroke:none"
             d="m 0,0 0,-8.9 -5.1,0 c 0.9,2.3 1.2,4.7 1.2,7.7 l 0,1.1 3.9,0 0,0.1 z m 6.1,-8.9 -1.5,0 0,12.7 c 0,0.3 -0.2,0.5 -0.5,0.5 l -11.9,0 c -0.3,0 -0.5,-0.2 -0.5,-0.5 l 0,-1.9 c 0,-5.6 -0.6,-8.2 -1.6,-10.7 l -1.2,0 c -0.3,0 -0.5,-0.2 -0.5,-0.5 l 0,-6.8 c 0,-0.3 0.2,-0.5 0.5,-0.5 l 3.3,0 c 0.3,0 0.5,0.2 0.5,0.5 l 0.2,2.9 9.3,0 0,-2.9 c 0,-0.3 0.2,-0.5 0.5,-0.5 l 3,0 c 0.3,0 0.5,0.2 0.5,0.5 l 0.5,6.7 c 0,0.1 0,0.3 -0.1,0.4 -0.2,0.1 -0.4,0.1 -0.5,0.1" /></g><g
           transform="translate(92.1389,21.5233)"
           id="g44"><path
             id="path46"
             style="fill:#ffffff;fill-opacity:1;fill-rule:nonzero;stroke:none"
             d="m 0,0 c 0,-2.6 -1.9,-4.6 -4.4,-4.6 -2.5,0 -4.5,2 -4.5,4.6 0,2.7 1.9,4.6 4.4,4.6 C -1.9,4.6 0,2.6 0,0 m -4.4,9 c -5.2,0 -9.3,-4 -9.3,-9 0,-5.1 4,-9 9.2,-9 5.2,0 9.3,4 9.3,9 0,5.1 -3.9,9 -9.2,9" /></g><g
           transform="translate(112.7389,30.2233)"
           id="g48"><path
             id="path50"
             style="fill:#ffffff;fill-opacity:1;fill-rule:nonzero;stroke:none"
             d="m 0,0 c -0.2,0 -0.3,-0.1 -0.4,-0.2 l -3.9,-6.2 -3.9,6.2 C -8.3,-0.1 -8.5,0 -8.6,0 l -3.9,0 C -12.8,0 -13,-0.2 -13,-0.5 l 0,-16.4 c 0,-0.3 0.2,-0.5 0.5,-0.5 l 3.5,0 c 0.3,0 0.5,0.2 0.5,0.5 l 0,8.9 3.6,-5.5 c 0.1,-0.1 0.4,-0.2 0.5,-0.2 0.2,0 0.3,0.1 0.4,0.2 l 3.7,5.6 0,-9 c 0,-0.3 0.2,-0.5 0.5,-0.5 l 3.6,0 c 0.3,0 0.5,0.2 0.5,0.5 l 0,16.4 C 4.3,-0.2 4.1,0 3.8,0 L 0,0 Z" /></g><g
           transform="translate(129.7389,20.6233)"
           id="g52"><path
             id="path54"
             style="fill:#ffffff;fill-opacity:1;fill-rule:nonzero;stroke:none"
             d="M 0,0 -2.8,0 -1.4,3.4 0,0 Z m 0.3,9.7 -3.3,0 c -0.2,0 -0.4,-0.1 -0.5,-0.3 l -7,-16.5 c -0.1,-0.2 -0.1,-0.3 0,-0.5 0.1,-0.1 0.3,-0.2 0.4,-0.2 l 3.7,0 c 0.2,0 0.4,0.1 0.5,0.3 l 1.4,3.4 6.2,0 1.4,-3.4 c 0.1,-0.2 0.3,-0.3 0.5,-0.3 l 3.8,0 c 0.2,0 0.3,0.1 0.4,0.2 0.1,0.1 0.1,0.3 0,0.5 L 0.8,9.4 C 0.7,9.6 0.5,9.7 0.3,9.7" /></g><g
           transform="translate(158.9389,30.2233)"
           id="g56"><path
             id="path58"
             style="fill:#ffffff;fill-opacity:1;fill-rule:nonzero;stroke:none"
             d="m 0,0 c -0.3,0 -0.5,-0.2 -0.5,-0.5 l 0,-12.6 -4.8,0 0,12.6 c 0,0.3 -0.2,0.5 -0.5,0.5 l -3.6,0 c -0.3,0 -0.5,-0.2 -0.5,-0.5 l 0,-12.6 -4.8,0 0,12.6 c 0,0.3 -0.2,0.5 -0.5,0.5 l -3.7,0 c -0.3,0 -0.5,-0.2 -0.5,-0.5 l 0,-16.4 c 0,-0.3 0.2,-0.5 0.5,-0.5 l 22.5,0 c 0.3,0 0.5,0.2 0.5,0.5 l 0,16.4 C 4.1,-0.2 3.9,0 3.6,0 L 0,0 Z" /></g><g
           transform="translate(177.3389,30.2233)"
           id="g60"><path
             id="path62"
             style="fill:#ffffff;fill-opacity:1;fill-rule:nonzero;stroke:none"
             d="m 0,0 c -0.3,0 -0.5,-0.2 -0.5,-0.5 l 0,-6 -5.6,0 0,6 c 0,0.3 -0.2,0.5 -0.5,0.5 l -3.7,0 c -0.3,0 -0.5,-0.2 -0.5,-0.5 l 0,-16.4 c 0,-0.3 0.2,-0.5 0.5,-0.5 l 3.6,0 c 0.3,0 0.5,0.2 0.5,0.5 l 0,6.1 5.6,0 0,-6.1 c 0,-0.3 0.2,-0.5 0.5,-0.5 l 3.6,0 c 0.3,0 0.5,0.2 0.5,0.5 L 4,-0.5 C 4,-0.2 3.8,0 3.5,0 L 0,0 Z" /></g><g
           transform="translate(185.5389,30.2233)"
           id="g64"><path
             id="path66"
             style="fill:#ffffff;fill-opacity:1;fill-rule:nonzero;stroke:none"
             d="m 0,0 c -0.3,0 -0.5,-0.2 -0.5,-0.5 l 0,-16.4 c 0,-0.3 0.2,-0.5 0.5,-0.5 l 3.6,0 c 0.3,0 0.5,0.2 0.5,0.5 l 0,16.4 C 4.1,-0.2 3.9,0 3.6,0 L 0,0 Z" /></g><g
           transform="translate(200.8389,30.4233)"
           id="g68"><path
             id="path70"
             style="fill:#ffffff;fill-opacity:1;fill-rule:nonzero;stroke:none"
             d="M 0,0 C 2.4,0 4.1,1.5 4.4,4 4.4,4.3 4.3,4.5 4,4.6 L 1.9,5 C 1.6,5 1.4,4.9 1.3,4.6 1,3.5 0.4,3.4 -0.1,3.4 -0.6,3.4 -1.1,3.5 -1.5,4.6 -1.6,4.8 -1.8,4.9 -2.1,5 L -4.2,4.6 C -4.5,4.5 -4.7,4.3 -4.6,4 -4.1,1.5 -2.4,0 0,0" /></g><g
           transform="translate(207.8389,30.2233)"
           id="g72"><path
             id="path74"
             style="fill:#ffffff;fill-opacity:1;fill-rule:nonzero;stroke:none"
             d="m 0,0 -3.4,0 c -0.2,0 -0.3,-0.1 -0.4,-0.2 l -6.3,-9.3 0,9.1 c 0,0.3 -0.2,0.5 -0.5,0.5 l -3.6,0 c -0.3,0 -0.5,-0.2 -0.5,-0.5 l 0,-16.4 c 0,-0.3 0.2,-0.5 0.5,-0.5 l 3.4,0 c 0.2,0 0.3,0.1 0.4,0.2 l 6.2,9.3 0,-9.1 c 0,-0.3 0.2,-0.5 0.5,-0.5 l 3.6,0 c 0.3,0 0.5,0.2 0.5,0.5 l 0,16.4 C 0.5,-0.3 0.3,0 0,0" /></g><g
           transform="translate(191.5389,37.1233)"
           id="g76"><path
             id="path78"
             style="fill:#d3d800;fill-opacity:1;fill-rule:nonzero;stroke:none"
             d="m 0,0 c 0,-2.4 -1.9,-4.3 -4.2,-4.3 -2.3,0 -4.2,1.9 -4.2,4.3 0,2.4 1.9,4.3 4.2,4.3 C -1.9,4.3 0,2.4 0,0" /></g></g></g></g></svg>