<svg xmlns="http://www.w3.org/2000/svg" width="88" height="88" viewBox="0 0 88 88">
  <path fill="#DD1796" d="M88,43.9932422 C88,46.8180003 84.3783784,49.2508063 83.8513514,51.9133774 C83.3243243,54.5759484 85.7162162,58.2927354 84.6621622,60.8201505 C83.6081081,63.3475657 79.2567568,64.2531101 77.7837838,66.5372447 C76.3108108,68.8213792 77.0810811,73.1193365 75.0810811,75.0790969 C73.0810811,77.0388573 68.8513514,76.2008908 66.5405405,77.7822147 C64.2297297,79.3635386 63.3918919,83.593918 60.8243243,84.6616495 C58.2567568,85.729381 54.6621622,83.3100906 51.9189189,83.8507142 C49.1756757,84.3913377 46.8243243,88 44,88 C41.1756757,88 38.7432432,84.3778221 36.0810811,83.8507142 C33.4189189,83.3236062 29.7027027,85.7158655 27.1756757,84.6616495 C24.6486486,83.6074336 23.7432432,79.2554139 21.4594595,77.7822147 C19.1756757,76.3090155 14.8783784,77.0794041 12.9189189,75.0790969 C10.9594595,73.0787897 11.7972973,68.8484104 10.2162162,66.5372447 C8.63513514,64.2260789 4.40540541,63.3881124 3.33783784,60.8201505 C2.27027027,58.2521886 4.68918919,54.6570419 4.14864865,51.9133774 C3.60810811,49.1697128 0,46.8180003 0,43.9932422 C0,41.1684841 3.62162162,38.7356781 4.14864865,36.073107 C4.67567568,33.410536 2.28378378,29.693749 3.33783784,27.1663339 C4.39189189,24.6389188 8.74324324,23.7333743 10.2162162,21.4492397 C11.6891892,19.1651052 10.9189189,14.8671479 12.9189189,12.9073875 C14.9189189,10.9476271 19.1486486,11.7855936 21.4594595,10.2042697 C23.7702703,8.62294578 24.6081081,4.39256643 27.1756757,3.32483489 C29.7432432,2.25710336 33.3378378,4.6763938 36.0810811,4.14928582 C38.8243243,3.62217785 41.1756757,0 44,0 C46.8243243,0 49.2567568,3.62217785 51.9189189,4.14928582 C54.5810811,4.6763938 58.2972973,2.28413454 60.8243243,3.33835048 C63.3513514,4.39256643 64.2567568,8.74458609 66.5405405,10.2177853 C68.8243243,11.6909845 73.1216216,10.9205959 75.0810811,12.9209031 C77.0405405,14.9212103 76.2027027,19.1515896 77.7837838,21.4627553 C79.3648649,23.7739211 83.5945946,24.6118876 84.6621622,27.1798495 C85.7297297,29.7478114 83.3108108,33.3429581 83.8513514,36.0866226 C84.3918919,38.8302872 88,41.1819997 88,44.0067578"/>
</svg>
