<?xml version="1.0" encoding="UTF-8" standalone="no"?>
<svg
   xmlns:dc="http://purl.org/dc/elements/1.1/"
   xmlns:cc="http://creativecommons.org/ns#"
   xmlns:rdf="http://www.w3.org/1999/02/22-rdf-syntax-ns#"
   xmlns:svg="http://www.w3.org/2000/svg"
   xmlns="http://www.w3.org/2000/svg"
   viewBox="0 0 68.768372 70.564003"
   height="70.564003"
   width="68.768372"
   xml:space="preserve"
   version="1.1"
   id="svg2"><metadata
     id="metadata8"><rdf:RDF><cc:Work
         rdf:about=""><dc:format>image/svg+xml</dc:format><dc:type
           rdf:resource="http://purl.org/dc/dcmitype/StillImage" /><dc:title></dc:title></cc:Work></rdf:RDF></metadata><defs
     id="defs6"><clipPath
       id="clipPath16"
       clipPathUnits="userSpaceOnUse"><path
         id="path18"
         d="m 6.48,25.545 c -1.252,0 -2.267,-1.016 -2.267,-2.268 l 0,0 0,-20.18 c 0,-1.253 1.015,-2.268 2.267,-2.268 l 0,0 43.54,0 c 1.252,0 2.268,1.015 2.268,2.268 l 0,0 0,20.18 c 0,1.252 -1.016,2.268 -2.268,2.268 l 0,0 -43.54,0 z" /></clipPath><clipPath
       id="clipPath32"
       clipPathUnits="userSpaceOnUse"><path
         id="path34"
         d="m 0,56.451 55.015,0 L 55.015,0 0,0 0,56.451 Z" /></clipPath><clipPath
       id="clipPath52"
       clipPathUnits="userSpaceOnUse"><path
         id="path54"
         d="M 41.27,55.43 1.71,34.478 C 0.903,34.051 0.595,33.049 1.022,32.241 l 0,0 1.909,-3.605 c 0.428,-0.807 1.43,-1.116 2.238,-0.687 l 0,0 39.558,20.952 c 0.809,0.427 1.116,1.429 0.689,2.237 l 0,0 -1.909,3.604 c -0.298,0.561 -0.871,0.881 -1.465,0.881 l 0,0 c -0.261,0 -0.526,-0.062 -0.772,-0.193" /></clipPath><clipPath
       id="clipPath68"
       clipPathUnits="userSpaceOnUse"><path
         id="path70"
         d="m 0,56.451 55.015,0 L 55.015,0 0,0 0,56.451 Z" /></clipPath></defs><g
     transform="matrix(1.25,0,0,-1.25,0,70.564)"
     id="g10"><g
       id="g12"><g
         clip-path="url(#clipPath16)"
         id="g14"><g
           transform="translate(54.6626,25.5445)"
           id="g20"><path
             id="path22"
             style="fill:#229fff;fill-opacity:1;fill-rule:nonzero;stroke:none"
             d="m 0,0 -3.44,0 -8.467,-6.88 3.44,0 L 0,0 Z m -7.806,0 -3.44,0 -8.467,-6.88 3.44,0 8.467,6.88 z m -7.806,0 -3.44,0 -8.467,-6.88 3.44,0 8.467,6.88 z m -7.806,0 -3.439,0 -8.468,-6.88 3.44,0 8.467,6.88 z m -7.805,0 -3.44,0 -8.468,-6.88 3.44,0 8.468,6.88 z m -16.274,-6.88 -3.44,0 8.468,6.88 3.44,0 -8.468,-6.88 z" /></g><g
           transform="translate(54.6626,25.5445)"
           id="g24"><path
             id="path26"
             style="fill:none;stroke:#229fff;stroke-width:0.25;stroke-linecap:butt;stroke-linejoin:miter;stroke-miterlimit:10;stroke-dasharray:none;stroke-opacity:1"
             d="m 0,0 -3.44,0 -8.467,-6.88 3.44,0 L 0,0 Z m -7.806,0 -3.44,0 -8.467,-6.88 3.44,0 8.467,6.88 z m -7.806,0 -3.44,0 -8.467,-6.88 3.44,0 8.467,6.88 z m -7.806,0 -3.439,0 -8.468,-6.88 3.44,0 8.467,6.88 z m -7.805,0 -3.44,0 -8.468,-6.88 3.44,0 8.468,6.88 z m -16.274,-6.88 -3.44,0 8.468,6.88 3.44,0 -8.468,-6.88 z" /></g></g></g><g
       id="g28"><g
         clip-path="url(#clipPath32)"
         id="g30"><g
           transform="translate(50.0201,0.8291)"
           id="g36"><path
             id="path38"
             style="fill:none;stroke:#229fff;stroke-width:0.25;stroke-linecap:butt;stroke-linejoin:miter;stroke-miterlimit:10;stroke-dasharray:none;stroke-opacity:1"
             d="m 0,0 -43.54,0 c -1.252,0 -2.267,1.015 -2.267,2.268 l 0,20.18 c 0,1.252 1.015,2.267 2.267,2.267 l 43.54,0 c 1.252,0 2.268,-1.015 2.268,-2.267 l 0,-20.18 C 2.268,1.015 1.252,0 0,0 Z" /></g><g
           transform="translate(6.4808,24.8403)"
           id="g40"><path
             id="path42"
             style="fill:#229fff;fill-opacity:1;fill-rule:nonzero;stroke:none"
             d="m 0,0 c -0.862,0 -1.564,-0.701 -1.564,-1.563 l 0,-20.181 c 0,-0.862 0.702,-1.563 1.564,-1.563 l 43.539,0 c 0.862,0 1.564,0.701 1.564,1.563 l 0,20.181 C 45.103,-0.701 44.401,0 43.539,0 L 0,0 Z m 43.539,-24.715 -43.539,0 c -1.639,0 -2.973,1.333 -2.973,2.971 l 0,20.181 c 0,1.638 1.334,2.971 2.973,2.971 l 43.539,0 c 1.639,0 2.972,-1.333 2.972,-2.971 l 0,-20.181 c 0,-1.638 -1.333,-2.971 -2.972,-2.971" /></g><g
           transform="translate(6.4808,24.8403)"
           id="g44"><path
             id="path46"
             style="fill:none;stroke:#229fff;stroke-width:0.25;stroke-linecap:butt;stroke-linejoin:miter;stroke-miterlimit:10;stroke-dasharray:none;stroke-opacity:1"
             d="m 0,0 c -0.862,0 -1.564,-0.701 -1.564,-1.563 l 0,-20.181 c 0,-0.862 0.702,-1.563 1.564,-1.563 l 43.539,0 c 0.862,0 1.564,0.701 1.564,1.563 l 0,20.181 C 45.103,-0.701 44.401,0 43.539,0 L 0,0 Z m 43.539,-24.715 -43.539,0 c -1.639,0 -2.973,1.333 -2.973,2.971 l 0,20.181 c 0,1.638 1.334,2.971 2.973,2.971 l 43.539,0 c 1.639,0 2.972,-1.333 2.972,-2.971 l 0,-20.181 c 0,-1.638 -1.333,-2.971 -2.972,-2.971 z" /></g></g></g><g
       id="g48"><g
         clip-path="url(#clipPath52)"
         id="g50"><g
           transform="translate(42.7815,55.8903)"
           id="g56"><path
             id="path58"
             style="fill:#229fff;fill-opacity:1;fill-rule:nonzero;stroke:none"
             d="m 0,0 -2.943,-1.521 -4.084,-9.855 2.942,1.521 L 0,0 Z m -6.677,-3.451 -2.943,-1.521 -4.085,-9.855 2.943,1.521 4.085,9.855 z m -6.678,-3.451 -2.942,-1.521 -4.085,-9.855 2.942,1.521 4.085,9.855 z m -6.677,-3.451 -2.943,-1.521 -4.085,-9.855 2.943,1.521 4.085,9.855 z m -6.678,-3.451 -2.942,-1.521 -4.085,-9.855 2.943,1.521 4.084,9.855 z m -10.762,-13.307 -2.943,-1.52 4.085,9.855 2.943,1.521 -4.085,-9.856 z" /></g><g
           transform="translate(42.7815,55.8903)"
           id="g60"><path
             id="path62"
             style="fill:none;stroke:#229fff;stroke-width:0.25;stroke-linecap:butt;stroke-linejoin:miter;stroke-miterlimit:10;stroke-dasharray:none;stroke-opacity:1"
             d="m 0,0 -2.943,-1.521 -4.084,-9.855 2.942,1.521 L 0,0 Z m -6.677,-3.451 -2.943,-1.521 -4.085,-9.855 2.943,1.521 4.085,9.855 z m -6.678,-3.451 -2.942,-1.521 -4.085,-9.855 2.942,1.521 4.085,9.855 z m -6.677,-3.451 -2.943,-1.521 -4.085,-9.855 2.943,1.521 4.085,9.855 z m -6.678,-3.451 -2.942,-1.521 -4.085,-9.855 2.943,1.521 4.084,9.855 z m -10.762,-13.307 -2.943,-1.52 4.085,9.855 2.943,1.521 -4.085,-9.856 z" /></g></g></g><g
       id="g64"><g
         clip-path="url(#clipPath68)"
         id="g66"><g
           transform="translate(44.7276,48.9002)"
           id="g72"><path
             id="path74"
             style="fill:none;stroke:#229fff;stroke-width:0.25;stroke-linecap:butt;stroke-linejoin:miter;stroke-miterlimit:10;stroke-dasharray:none;stroke-opacity:1"
             d="m 0,0 -39.559,-20.952 c -0.808,-0.428 -1.809,-0.12 -2.237,0.688 l -1.909,3.605 c -0.428,0.808 -0.12,1.809 0.688,2.237 L -3.458,6.53 c 0.807,0.428 1.809,0.12 2.237,-0.688 L 0.688,2.237 C 1.116,1.43 0.808,0.428 0,0 Z" /></g><g
           transform="translate(42.0423,54.9185)"
           id="g76"><path
             id="path78"
             style="fill:#229fff;fill-opacity:1;fill-rule:nonzero;stroke:none"
             d="m 0,0 c -0.15,0 -0.303,-0.036 -0.444,-0.11 l -39.559,-20.952 c -0.224,-0.119 -0.389,-0.318 -0.464,-0.561 -0.074,-0.243 -0.05,-0.501 0.07,-0.725 l 1.908,-3.604 c 0.119,-0.225 0.318,-0.39 0.56,-0.465 0.244,-0.074 0.501,-0.049 0.725,0.069 l 39.56,20.952 c 0.463,0.245 0.64,0.822 0.395,1.286 L 0.842,-0.506 C 0.671,-0.184 0.341,0 0,0 m -37.646,-27.868 c -0.233,0 -0.467,0.035 -0.696,0.106 -0.602,0.185 -1.096,0.594 -1.391,1.151 l -1.909,3.604 c -0.295,0.556 -0.355,1.195 -0.171,1.798 0.186,0.602 0.594,1.096 1.151,1.391 L -1.103,1.134 C 0.044,1.742 1.478,1.303 2.086,0.153 l 1.909,-3.604 c 0.609,-1.15 0.169,-2.581 -0.98,-3.189 l -39.56,-20.952 c -0.345,-0.183 -0.721,-0.276 -1.101,-0.276" /></g><g
           transform="translate(42.0423,54.9185)"
           id="g80"><path
             id="path82"
             style="fill:none;stroke:#229fff;stroke-width:0.25;stroke-linecap:butt;stroke-linejoin:miter;stroke-miterlimit:10;stroke-dasharray:none;stroke-opacity:1"
             d="m 0,0 c -0.15,0 -0.303,-0.036 -0.444,-0.11 l -39.559,-20.952 c -0.224,-0.119 -0.389,-0.318 -0.464,-0.561 -0.074,-0.243 -0.05,-0.501 0.07,-0.725 l 1.908,-3.604 c 0.119,-0.225 0.318,-0.39 0.56,-0.465 0.244,-0.074 0.501,-0.049 0.725,0.069 l 39.56,20.952 c 0.463,0.245 0.64,0.822 0.395,1.286 L 0.842,-0.506 C 0.671,-0.184 0.341,0 0,0 Z m -37.646,-27.868 c -0.233,0 -0.467,0.035 -0.696,0.106 -0.602,0.185 -1.096,0.594 -1.391,1.151 l -1.909,3.604 c -0.295,0.556 -0.355,1.195 -0.171,1.798 0.186,0.602 0.594,1.096 1.151,1.391 L -1.103,1.134 C 0.044,1.742 1.478,1.303 2.086,0.153 l 1.909,-3.604 c 0.609,-1.15 0.169,-2.581 -0.98,-3.189 l -39.56,-20.952 c -0.345,-0.183 -0.721,-0.276 -1.101,-0.276 z" /></g></g></g></g></svg>