<?xml version="1.0" encoding="UTF-8" standalone="no"?>
<svg
   xmlns:dc="http://purl.org/dc/elements/1.1/"
   xmlns:cc="http://creativecommons.org/ns#"
   xmlns:rdf="http://www.w3.org/1999/02/22-rdf-syntax-ns#"
   xmlns:svg="http://www.w3.org/2000/svg"
   xmlns="http://www.w3.org/2000/svg"
   viewBox="0 0 81.9245 81.925629"
   height="81.925629"
   width="81.9245"
   xml:space="preserve"
   version="1.1"
   id="svg2"><metadata
     id="metadata8"><rdf:RDF><cc:Work
         rdf:about=""><dc:format>image/svg+xml</dc:format><dc:type
           rdf:resource="http://purl.org/dc/dcmitype/StillImage" /><dc:title></dc:title></cc:Work></rdf:RDF></metadata><defs
     id="defs6"><clipPath
       id="clipPath16"
       clipPathUnits="userSpaceOnUse"><path
         id="path18"
         d="m 0,65.541 65.54,0 L 65.54,0 0,0 0,65.541 Z" /></clipPath></defs><g
     transform="matrix(1.25,0,0,-1.25,0,81.925625)"
     id="g10"><g
       id="g12"><g
         clip-path="url(#clipPath16)"
         id="g14"><g
           transform="translate(37.874,27.6665)"
           id="g20"><path
             id="path22"
             style="fill:#000000;fill-opacity:1;fill-rule:nonzero;stroke:none"
             d="m 0,0 c -3.306,-3.305 -7.7,-5.125 -12.374,-5.125 -4.675,0 -9.069,1.82 -12.375,5.126 -3.306,3.305 -5.125,7.699 -5.125,12.374 0,4.675 1.82,9.069 5.125,12.375 3.306,3.305 7.7,5.125 12.375,5.125 C -7.7,29.875 -3.306,28.055 0,24.75 6.822,17.926 6.822,6.823 0,0 m 5.655,30.406 c -4.815,4.816 -11.219,7.468 -18.029,7.468 -6.81,0 -13.216,-2.653 -18.031,-7.469 -4.816,-4.816 -7.469,-11.22 -7.469,-18.031 0,-6.811 2.652,-13.215 7.469,-18.03 4.815,-4.816 11.219,-7.47 18.031,-7.47 6.811,0 13.214,2.652 18.029,7.469 9.942,9.943 9.942,26.12 0,36.063" /></g><g
           transform="translate(64.3677,6.8281)"
           id="g24"><path
             id="path26"
             style="fill:#000000;fill-opacity:1;fill-rule:nonzero;stroke:none"
             d="m 0,0 -13.06,13.06 c -1.56,1.562 -4.095,1.562 -5.656,0 -1.562,-1.563 -1.562,-4.096 0,-5.657 l 13.06,-13.059 c 0.78,-0.781 1.804,-1.172 2.828,-1.172 1.023,0 2.048,0.391 2.828,1.172 1.562,1.56 1.562,4.095 0,5.656" /></g></g></g></g></svg>