<?xml version="1.0" encoding="UTF-8" standalone="no"?>
<svg
   xmlns:dc="http://purl.org/dc/elements/1.1/"
   xmlns:cc="http://creativecommons.org/ns#"
   xmlns:rdf="http://www.w3.org/1999/02/22-rdf-syntax-ns#"
   xmlns:svg="http://www.w3.org/2000/svg"
   xmlns="http://www.w3.org/2000/svg"
   id="svg2"
   version="1.1"
   xml:space="preserve"
   width="127.49875"
   height="127.49875"
   viewBox="0 0 127.49875 127.49875"><metadata
     id="metadata8"><rdf:RDF><cc:Work
         rdf:about=""><dc:format>image/svg+xml</dc:format><dc:type
           rdf:resource="http://purl.org/dc/dcmitype/StillImage" /><dc:title></dc:title></cc:Work></rdf:RDF></metadata><defs
     id="defs6"><clipPath
       clipPathUnits="userSpaceOnUse"
       id="clipPath16"><path
         d="m 0,101.999 101.999,0 L 101.999,0 0,0 0,101.999 Z"
         id="path18" /></clipPath></defs><g
     id="g10"
     transform="matrix(1.25,0,0,-1.25,0,127.49875)"><g
       id="g12"><g
         id="g14"
         clip-path="url(#clipPath16)"><g
           id="g20"
           transform="translate(97.182,44.846)"><path
             d="m 0,0 -4.077,-0.981 c -4.121,-0.993 -7.166,-3.391 -8.558,-6.756 -1.391,-3.369 -0.94,-7.209 1.266,-10.827 l 2.198,-3.577 c -2.511,-3.273 -5.438,-6.192 -8.714,-8.702 l -3.577,2.186 c -2.194,1.339 -4.548,2.051 -6.818,2.051 -5.167,0 -9.394,-3.66 -10.764,-9.339 l -0.982,-4.08 c -4.067,-0.533 -8.241,-0.533 -12.31,0 l -0.983,4.08 c -1.372,5.679 -5.597,9.339 -10.764,9.339 -2.268,0 -4.622,-0.712 -6.818,-2.051 l -3.577,-2.186 c -3.271,2.51 -6.203,5.429 -8.703,8.702 l 2.176,3.577 c 2.217,3.618 2.667,7.458 1.275,10.827 -1.398,3.365 -4.433,5.763 -8.552,6.756 L -92.364,0 c -0.271,2.041 -0.397,4.1 -0.397,6.161 0,2.049 0.127,4.12 0.397,6.152 l 4.082,0.982 c 4.12,0.994 7.154,3.389 8.552,6.756 1.391,3.367 0.941,7.216 -1.275,10.824 l -2.177,3.577 c 2.5,3.274 5.432,6.203 8.703,8.713 l 3.577,-2.186 c 2.197,-1.35 4.551,-2.061 6.818,-2.061 5.167,0 9.392,3.67 10.764,9.34 l 0.983,4.079 c 4.069,0.536 8.242,0.536 12.31,0 l 0.982,-4.079 c 1.37,-5.67 5.597,-9.34 10.776,-9.34 2.258,0 4.611,0.71 6.806,2.061 l 3.577,2.186 c 3.275,-2.51 6.203,-5.439 8.714,-8.713 l -2.198,-3.577 c -2.206,-3.608 -2.656,-7.457 -1.266,-10.824 1.392,-3.367 4.437,-5.763 8.558,-6.756 l 4.077,-0.982 C 0.263,10.281 0.409,8.21 0.409,6.161 0.41,4.099 0.263,2.041 0,0 m 3.212,13.964 c -0.103,0.688 -0.615,1.234 -1.286,1.399 l -5.208,1.256 c -3.023,0.723 -5.231,2.405 -6.191,4.74 -0.975,2.331 -0.607,5.083 1.024,7.738 l 2.791,4.561 c 0.357,0.585 0.324,1.339 -0.082,1.894 -3.086,4.247 -6.799,7.96 -11.047,11.045 -0.553,0.405 -1.305,0.439 -1.893,0.083 l -4.559,-2.793 c -1.664,-1.016 -3.399,-1.546 -5.042,-1.546 -3.587,0 -6.442,2.571 -7.447,6.713 l -1.243,5.21 c -0.168,0.667 -0.723,1.18 -1.402,1.283 -5.146,0.808 -10.47,0.808 -15.616,0 -0.68,-0.103 -1.233,-0.616 -1.391,-1.283 l -1.256,-5.21 c -1.002,-4.142 -3.859,-6.713 -7.447,-6.713 -1.641,0 -3.378,0.53 -5.04,1.546 l -4.561,2.793 c -0.585,0.356 -1.338,0.322 -1.893,-0.083 -4.246,-3.085 -7.958,-6.799 -11.044,-11.045 -0.409,-0.555 -0.439,-1.309 -0.084,-1.894 l 2.794,-4.561 c 1.631,-2.654 1.987,-5.407 1.023,-7.738 -0.962,-2.335 -3.16,-4.017 -6.19,-4.74 l -5.211,-1.256 c -0.668,-0.165 -1.181,-0.711 -1.286,-1.399 -0.397,-2.575 -0.607,-5.198 -0.607,-7.804 0,-2.614 0.21,-5.24 0.607,-7.811 0.104,-0.681 0.617,-1.234 1.286,-1.392 l 5.211,-1.257 c 3.03,-0.729 5.228,-2.415 6.19,-4.747 0.964,-2.335 0.607,-5.083 -1.023,-7.742 l -2.794,-4.559 c -0.355,-0.586 -0.324,-1.338 0.084,-1.892 3.085,-4.246 6.798,-7.961 11.044,-11.045 0.555,-0.41 1.308,-0.439 1.893,-0.073 l 4.561,2.782 c 1.662,1.014 3.399,1.558 5.04,1.558 3.588,0 6.445,-2.584 7.447,-6.725 l 1.256,-5.209 c 0.158,-0.671 0.711,-1.173 1.391,-1.288 2.573,-0.397 5.199,-0.606 7.813,-0.606 2.606,0 5.23,0.209 7.802,0.606 0.68,0.115 1.234,0.617 1.402,1.288 l 1.243,5.209 c 1.005,4.141 3.86,6.725 7.447,6.725 1.643,0 3.378,-0.544 5.042,-1.558 l 4.559,-2.782 c 0.588,-0.366 1.34,-0.337 1.893,0.073 4.248,3.084 7.961,6.799 11.047,11.045 0.406,0.554 0.439,1.306 0.082,1.892 l -2.791,4.559 c -1.632,2.659 -1.999,5.407 -1.024,7.742 0.96,2.332 3.168,4.018 6.191,4.747 l 5.208,1.257 c 0.671,0.157 1.184,0.711 1.286,1.392 0.397,2.571 0.606,5.197 0.606,7.811 10e-4,2.606 -0.208,5.229 -0.605,7.804"
             style="fill:#000000;fill-opacity:1;fill-rule:nonzero;stroke:none"
             id="path22" /></g><g
           id="g24"
           transform="translate(97.182,44.846)"><path
             d="m 0,0 -4.077,-0.981 c -4.121,-0.993 -7.166,-3.391 -8.558,-6.756 -1.391,-3.369 -0.94,-7.209 1.266,-10.827 l 2.198,-3.577 c -2.511,-3.273 -5.438,-6.192 -8.714,-8.702 l -3.577,2.186 c -2.194,1.339 -4.548,2.051 -6.818,2.051 -5.167,0 -9.394,-3.66 -10.764,-9.339 l -0.982,-4.08 c -4.067,-0.533 -8.241,-0.533 -12.31,0 l -0.983,4.08 c -1.372,5.679 -5.597,9.339 -10.764,9.339 -2.268,0 -4.622,-0.712 -6.818,-2.051 l -3.577,-2.186 c -3.271,2.51 -6.203,5.429 -8.703,8.702 l 2.176,3.577 c 2.217,3.618 2.667,7.458 1.275,10.827 -1.398,3.365 -4.433,5.763 -8.552,6.756 L -92.364,0 c -0.271,2.041 -0.397,4.1 -0.397,6.161 0,2.049 0.127,4.12 0.397,6.152 l 4.082,0.982 c 4.12,0.994 7.154,3.389 8.552,6.756 1.391,3.367 0.941,7.216 -1.275,10.824 l -2.177,3.577 c 2.5,3.274 5.432,6.203 8.703,8.713 l 3.577,-2.186 c 2.197,-1.35 4.551,-2.061 6.818,-2.061 5.167,0 9.392,3.67 10.764,9.34 l 0.983,4.079 c 4.069,0.536 8.242,0.536 12.31,0 l 0.982,-4.079 c 1.37,-5.67 5.597,-9.34 10.776,-9.34 2.258,0 4.611,0.71 6.806,2.061 l 3.577,2.186 c 3.275,-2.51 6.203,-5.439 8.714,-8.713 l -2.198,-3.577 c -2.206,-3.608 -2.656,-7.457 -1.266,-10.824 1.392,-3.367 4.437,-5.763 8.558,-6.756 l 4.077,-0.982 C 0.263,10.281 0.409,8.21 0.409,6.161 0.41,4.099 0.263,2.041 0,0 Z m 3.212,13.964 c -0.103,0.688 -0.615,1.234 -1.286,1.399 l -5.208,1.256 c -3.023,0.723 -5.231,2.405 -6.191,4.74 -0.975,2.331 -0.607,5.083 1.024,7.738 l 2.791,4.561 c 0.357,0.585 0.324,1.339 -0.082,1.894 -3.086,4.247 -6.799,7.96 -11.047,11.045 -0.553,0.405 -1.305,0.439 -1.893,0.083 l -4.559,-2.793 c -1.664,-1.016 -3.399,-1.546 -5.042,-1.546 -3.587,0 -6.442,2.571 -7.447,6.713 l -1.243,5.21 c -0.168,0.667 -0.723,1.18 -1.402,1.283 -5.146,0.808 -10.47,0.808 -15.616,0 -0.68,-0.103 -1.233,-0.616 -1.391,-1.283 l -1.256,-5.21 c -1.002,-4.142 -3.859,-6.713 -7.447,-6.713 -1.641,0 -3.378,0.53 -5.04,1.546 l -4.561,2.793 c -0.585,0.356 -1.338,0.322 -1.893,-0.083 -4.246,-3.085 -7.958,-6.799 -11.044,-11.045 -0.409,-0.555 -0.439,-1.309 -0.084,-1.894 l 2.794,-4.561 c 1.631,-2.654 1.987,-5.407 1.023,-7.738 -0.962,-2.335 -3.16,-4.017 -6.19,-4.74 l -5.211,-1.256 c -0.668,-0.165 -1.181,-0.711 -1.286,-1.399 -0.397,-2.575 -0.607,-5.198 -0.607,-7.804 0,-2.614 0.21,-5.24 0.607,-7.811 0.104,-0.681 0.617,-1.234 1.286,-1.392 l 5.211,-1.257 c 3.03,-0.729 5.228,-2.415 6.19,-4.747 0.964,-2.335 0.607,-5.083 -1.023,-7.742 l -2.794,-4.559 c -0.355,-0.586 -0.324,-1.338 0.084,-1.892 3.085,-4.246 6.798,-7.961 11.044,-11.045 0.555,-0.41 1.308,-0.439 1.893,-0.073 l 4.561,2.782 c 1.662,1.014 3.399,1.558 5.04,1.558 3.588,0 6.445,-2.584 7.447,-6.725 l 1.256,-5.209 c 0.158,-0.671 0.711,-1.173 1.391,-1.288 2.573,-0.397 5.199,-0.606 7.813,-0.606 2.606,0 5.23,0.209 7.802,0.606 0.68,0.115 1.234,0.617 1.402,1.288 l 1.243,5.209 c 1.005,4.141 3.86,6.725 7.447,6.725 1.643,0 3.378,-0.544 5.042,-1.558 l 4.559,-2.782 c 0.588,-0.366 1.34,-0.337 1.893,0.073 4.248,3.084 7.961,6.799 11.047,11.045 0.406,0.554 0.439,1.306 0.082,1.892 l -2.791,4.559 c -1.632,2.659 -1.999,5.407 -1.024,7.742 0.96,2.332 3.168,4.018 6.191,4.747 l 5.208,1.257 c 0.671,0.157 1.184,0.711 1.286,1.392 0.397,2.571 0.606,5.197 0.606,7.811 10e-4,2.606 -0.208,5.229 -0.605,7.804 z"
             style="fill:#000000;fill-opacity:1;fill-rule:nonzero;stroke:none"
             id="path26" /></g><g
           id="g28"
           transform="translate(51.006,79.047)"><path
             d="m 0,0 c -0.952,0 -1.717,-0.763 -1.717,-1.707 0,-0.94 0.765,-1.702 1.717,-1.702 13.577,0 24.63,-11.058 24.63,-24.633 0,-0.94 0.763,-1.715 1.705,-1.715 0.941,0 1.705,0.775 1.705,1.715 C 28.041,-12.583 15.457,0 0,0"
             style="fill:#000000;fill-opacity:1;fill-rule:nonzero;stroke:none"
             id="path30" /></g><g
           id="g32"
           transform="translate(51.006,79.047)"><path
             d="m 0,0 c -0.952,0 -1.717,-0.763 -1.717,-1.707 0,-0.94 0.765,-1.702 1.717,-1.702 13.577,0 24.63,-11.058 24.63,-24.633 0,-0.94 0.763,-1.715 1.705,-1.715 0.941,0 1.705,0.775 1.705,1.715 C 28.041,-12.583 15.457,0 0,0 Z"
             style="fill:#000000;fill-opacity:1;fill-rule:nonzero;stroke:none"
             id="path34" /></g><g
           id="g36"
           transform="translate(68.421,33.581)"><path
             d="m 0,0 c -4.654,-4.653 -10.834,-7.217 -17.415,-7.217 -6.589,0 -12.772,2.563 -17.424,7.217 -9.602,9.602 -9.602,25.237 0,34.839 0.668,0.669 0.668,1.747 0,2.416 -0.671,0.669 -1.749,0.669 -2.418,0 -10.93,-10.941 -10.93,-28.73 0,-39.671 5.305,-5.294 12.343,-8.209 19.843,-8.209 7.488,0 14.529,2.915 19.829,8.209 0.67,0.668 0.67,1.747 0,2.416 C 1.747,0.672 0.669,0.672 0,0"
             style="fill:#000000;fill-opacity:1;fill-rule:nonzero;stroke:none"
             id="path38" /></g><g
           id="g40"
           transform="translate(68.421,33.581)"><path
             d="m 0,0 c -4.654,-4.653 -10.834,-7.217 -17.415,-7.217 -6.589,0 -12.772,2.563 -17.424,7.217 -9.602,9.602 -9.602,25.237 0,34.839 0.668,0.669 0.668,1.747 0,2.416 -0.671,0.669 -1.749,0.669 -2.418,0 -10.93,-10.941 -10.93,-28.73 0,-39.671 5.305,-5.294 12.343,-8.209 19.843,-8.209 7.488,0 14.529,2.915 19.829,8.209 0.67,0.668 0.67,1.747 0,2.416 C 1.747,0.672 0.669,0.672 0,0 Z"
             style="fill:#000000;fill-opacity:1;fill-rule:nonzero;stroke:none"
             id="path42" /></g><g
           id="g44"
           transform="translate(51.006,62.471)"><path
             d="m 0,0 c 6.316,0 11.463,-5.148 11.463,-11.465 0,-6.329 -5.147,-11.464 -11.463,-11.464 -6.33,0 -11.463,5.136 -11.463,11.464 C -11.463,-5.148 -6.329,0 0,0 m 0,-26.347 c 8.2,0 14.874,6.674 14.874,14.882 C 14.874,-3.264 8.2,3.408 0,3.408 c -8.211,0 -14.882,-6.672 -14.882,-14.873 10e-4,-8.208 6.671,-14.882 14.882,-14.882"
             style="fill:#000000;fill-opacity:1;fill-rule:nonzero;stroke:none"
             id="path46" /></g><g
           id="g48"
           transform="translate(51.006,62.471)"><path
             d="m 0,0 c 6.316,0 11.463,-5.148 11.463,-11.465 0,-6.329 -5.147,-11.464 -11.463,-11.464 -6.33,0 -11.463,5.136 -11.463,11.464 C -11.463,-5.148 -6.329,0 0,0 Z m 0,-26.347 c 8.2,0 14.874,6.674 14.874,14.882 C 14.874,-3.264 8.2,3.408 0,3.408 c -8.211,0 -14.882,-6.672 -14.882,-14.873 10e-4,-8.208 6.671,-14.882 14.882,-14.882 z"
             style="fill:#000000;fill-opacity:1;fill-rule:nonzero;stroke:none"
             id="path50" /></g></g></g></g></svg>
