<?xml version="1.0" encoding="UTF-8" standalone="no"?>
<svg
   xmlns:dc="http://purl.org/dc/elements/1.1/"
   xmlns:cc="http://creativecommons.org/ns#"
   xmlns:rdf="http://www.w3.org/1999/02/22-rdf-syntax-ns#"
   xmlns:svg="http://www.w3.org/2000/svg"
   xmlns="http://www.w3.org/2000/svg"
   viewBox="0 0 42.675377 45.953876"
   height="45.953876"
   width="42.675377"
   xml:space="preserve"
   version="1.1"
   id="svg2"><metadata
     id="metadata8"><rdf:RDF><cc:Work
         rdf:about=""><dc:format>image/svg+xml</dc:format><dc:type
           rdf:resource="http://purl.org/dc/dcmitype/StillImage" /><dc:title></dc:title></cc:Work></rdf:RDF></metadata><defs
     id="defs6"><clipPath
       id="clipPath16"
       clipPathUnits="userSpaceOnUse"><path
         id="path18"
         d="m 0,36.763 34.14,0 L 34.14,0 0,0 0,36.763 Z" /></clipPath></defs><g
     transform="matrix(1.25,0,0,-1.25,0,45.953875)"
     id="g10"><g
       id="g12"><g
         clip-path="url(#clipPath16)"
         id="g14"><g
           transform="translate(24.3662,35.9699)"
           id="g20"><path
             id="path22"
             style="fill:#4f96d3;fill-opacity:1;fill-rule:nonzero;stroke:none"
             d="M 0,0 1.205,-4.594 0.567,-5.686 -4.028,-6.892 c -0.339,-0.089 -0.54,-0.434 -0.452,-0.772 0.044,-0.17 0.153,-0.304 0.293,-0.387 0.139,-0.081 0.311,-0.109 0.48,-0.065 l 6.072,1.594 c 0.338,0.087 0.54,0.433 0.452,0.771 L 1.224,0.321 C 1.136,0.658 0.789,0.861 0.452,0.772 0.113,0.685 -0.089,0.339 0,0" /></g><g
           transform="translate(15.0701,24.702)"
           id="g24"><path
             id="path26"
             d="m 9.8574219,-15.134766 a 1.0001,1.0001 0 0 0 -0.453125,0.101563 L -0.42773438,-10.375 A 1.0001,1.0001 0 0 0 -1,-9.4726562 L -1,0 a 1.0001,1.0001 0 1 0 2,0 l 0,-8.8398438 9.259766,-4.3847652 a 1.0001,1.0001 0 0 0 -0.4023441,-1.910157 z"
             style="color:#000000;font-style:normal;font-variant:normal;font-weight:normal;font-stretch:normal;font-size:medium;line-height:normal;font-family:sans-serif;text-indent:0;text-align:start;text-decoration:none;text-decoration-line:none;text-decoration-style:solid;text-decoration-color:#000000;letter-spacing:normal;word-spacing:normal;text-transform:none;direction:ltr;block-progression:tb;writing-mode:lr-tb;baseline-shift:baseline;text-anchor:start;white-space:normal;clip-rule:nonzero;display:inline;overflow:visible;visibility:visible;opacity:1;isolation:auto;mix-blend-mode:normal;color-interpolation:sRGB;color-interpolation-filters:linearRGB;solid-color:#000000;solid-opacity:1;fill:#4f96d3;fill-opacity:1;fill-rule:nonzero;stroke:none;stroke-width:2;stroke-linecap:round;stroke-linejoin:round;stroke-miterlimit:10;stroke-dasharray:none;stroke-dashoffset:0;stroke-opacity:1;color-rendering:auto;image-rendering:auto;shape-rendering:auto;text-rendering:auto;enable-background:accumulate" /></g><g
           transform="translate(31.6769,23.7712)"
           id="g28"><path
             id="path30"
             d="m -14.607422,-23.771484 c -9.412878,0 -17.070312,7.657209 -17.070312,17.0644528 0,9.417573 7.657735,17.0703122 17.070312,17.0703122 3.530925,0 6.8200349,-1.0757078 9.544922,-2.9160154 A 1.0002641,1.0002641 0 1 0 -6.1816406,5.7890625 c -2.4071129,1.6256924 -5.3007064,2.5742187 -8.4257814,2.5742187 -8.331423,0 -15.070312,-6.7338855 -15.070312,-15.0703124 0,-8.3247568 6.73919,-15.0644528 15.070312,-15.0644528 8.3332444,0 15.07031262,6.739546 15.07031262,15.0644528 0,2.2491405 -0.49062323,4.3743438 -1.37109374,6.28906245 a 1.0001,1.0001 0 1 0 1.81640624,0.8359375 C 1.9057326,-1.7513126 2.4628906,-4.1661718 2.4628906,-6.7070312 c 0,-9.4070938 -7.6555567,-17.0644528 -17.0703126,-17.0644528 z"
             style="color:#000000;font-style:normal;font-variant:normal;font-weight:normal;font-stretch:normal;font-size:medium;line-height:normal;font-family:sans-serif;text-indent:0;text-align:start;text-decoration:none;text-decoration-line:none;text-decoration-style:solid;text-decoration-color:#000000;letter-spacing:normal;word-spacing:normal;text-transform:none;direction:ltr;block-progression:tb;writing-mode:lr-tb;baseline-shift:baseline;text-anchor:start;white-space:normal;clip-rule:nonzero;display:inline;overflow:visible;visibility:visible;opacity:1;isolation:auto;mix-blend-mode:normal;color-interpolation:sRGB;color-interpolation-filters:linearRGB;solid-color:#000000;solid-opacity:1;fill:#4f96d3;fill-opacity:1;fill-rule:nonzero;stroke:none;stroke-width:2;stroke-linecap:round;stroke-linejoin:round;stroke-miterlimit:10;stroke-dasharray:none;stroke-dashoffset:0;stroke-opacity:1;color-rendering:auto;image-rendering:auto;shape-rendering:auto;text-rendering:auto;enable-background:accumulate" /></g></g></g></g></svg>