<?xml version="1.0" encoding="UTF-8" standalone="no"?>
<svg
   xmlns:dc="http://purl.org/dc/elements/1.1/"
   xmlns:cc="http://creativecommons.org/ns#"
   xmlns:rdf="http://www.w3.org/1999/02/22-rdf-syntax-ns#"
   xmlns:svg="http://www.w3.org/2000/svg"
   xmlns="http://www.w3.org/2000/svg"
   viewBox="0 0 128.82375 100.95312"
   height="100.95312"
   width="128.82375"
   xml:space="preserve"
   version="1.1"
   id="svg2"><metadata
     id="metadata8"><rdf:RDF><cc:Work
         rdf:about=""><dc:format>image/svg+xml</dc:format><dc:type
           rdf:resource="http://purl.org/dc/dcmitype/StillImage" /><dc:title></dc:title></cc:Work></rdf:RDF></metadata><defs
     id="defs6"><clipPath
       id="clipPath16"
       clipPathUnits="userSpaceOnUse"><path
         id="path18"
         d="m 0,80.762 103.059,0 L 103.059,0 0,0 0,80.762 Z" /></clipPath></defs><g
     transform="matrix(1.25,0,0,-1.25,0,100.95313)"
     id="g10"><g
       id="g12"><g
         clip-path="url(#clipPath16)"
         id="g14"><g
           transform="translate(95.624,4.595)"
           id="g20"><path
             id="path22"
             style="fill:#000000;fill-opacity:1;fill-rule:nonzero;stroke:none"
             d="m 0,0 -67.805,0 c -1.564,0 -2.836,1.269 -2.836,2.833 l 0,25.459 73.479,0 L 2.833,2.833 C 2.833,1.268 1.565,0 0,0 m -67.805,49.473 67.811,0 c 1.565,0 2.834,-1.272 2.834,-2.837 l -10e-4,-8.251 -73.48,0 0,8.251 c 0,1.565 1.272,2.837 2.836,2.837 m 67.811,3.094 -67.811,0 c -3.269,0 -5.931,-2.662 -5.931,-5.931 l 0,-43.803 c 0,-3.269 2.662,-5.928 5.931,-5.928 l 67.805,0 c 3.269,0 5.928,2.659 5.928,5.928 l 0.007,43.803 c 0,3.269 -2.661,5.931 -5.929,5.931" /></g><g
           transform="translate(95.624,4.595)"
           id="g24"><path
             id="path26"
             style="fill:#000000;fill-opacity:1;fill-rule:nonzero;stroke:none"
             d="m 0,0 -67.805,0 c -1.564,0 -2.836,1.269 -2.836,2.833 l 0,25.459 73.479,0 L 2.833,2.833 C 2.833,1.268 1.565,0 0,0 Z m -67.805,49.473 67.811,0 c 1.565,0 2.834,-1.272 2.834,-2.837 l -10e-4,-8.251 -73.48,0 0,8.251 c 0,1.565 1.272,2.837 2.836,2.837 z m 67.811,3.094 -67.811,0 c -3.269,0 -5.931,-2.662 -5.931,-5.931 l 0,-43.803 c 0,-3.269 2.662,-5.928 5.931,-5.928 l 67.805,0 c 3.269,0 5.928,2.659 5.928,5.928 l 0.007,43.803 c 0,3.269 -2.661,5.931 -5.929,5.931 z" /></g><g
           transform="translate(16.5421,13.547)"
           id="g28"><path
             id="path30"
             style="fill:#000000;fill-opacity:1;fill-rule:nonzero;stroke:none"
             d="m 0,0 c -1.29,0.024 -2.453,0.869 -2.734,2.187 l -9.152,42.84 c -0.326,1.529 0.649,3.04 2.182,3.366 l 66.312,14.163 c 1.522,0.33 3.039,-0.65 3.366,-2.181 l 2.398,-11.249 3.166,0 -2.537,11.895 c -0.684,3.2 -3.844,5.246 -7.047,4.563 L -10.351,51.416 c -3.196,-0.683 -5.244,-3.84 -4.559,-7.037 L -5.762,1.546 C -5.172,-1.223 -2.713,-3.011 0,-3.034 0,-3.034 0,0 0,0" /></g><g
           transform="translate(16.5421,13.547)"
           id="g32"><path
             id="path34"
             style="fill:#000000;fill-opacity:1;fill-rule:nonzero;stroke:none"
             d="m 0,0 c -1.29,0.024 -2.453,0.869 -2.734,2.187 l -9.152,42.84 c -0.326,1.529 0.649,3.04 2.182,3.366 l 66.312,14.163 c 1.522,0.33 3.039,-0.65 3.366,-2.181 l 2.398,-11.249 3.166,0 -2.537,11.895 c -0.684,3.2 -3.844,5.246 -7.047,4.563 L -10.351,51.416 c -3.196,-0.683 -5.244,-3.84 -4.559,-7.037 L -5.762,1.546 C -5.172,-1.223 -2.713,-3.011 0,-3.034 0,-3.034 0,0 0,0 Z" /></g><g
           transform="translate(85.4271,15.1225)"
           id="g36"><path
             id="path38"
             style="fill:#000000;fill-opacity:1;fill-rule:nonzero;stroke:none"
             d="m 0,0 c 0,-2.879 -2.334,-5.214 -5.214,-5.214 -2.879,0 -5.213,2.335 -5.213,5.214 0,2.879 2.334,5.214 5.213,5.214 C -2.334,5.214 0,2.879 0,0" /></g><g
           transform="translate(92.3333,15.1225)"
           id="g40"><path
             id="path42"
             style="fill:#000000;fill-opacity:1;fill-rule:nonzero;stroke:none"
             d="m 0,0 c 0,-2.879 -2.334,-5.214 -5.214,-5.214 -2.879,0 -5.213,2.335 -5.213,5.214 0,2.879 2.334,5.214 5.213,5.214 C -2.334,5.214 0,2.879 0,0" /></g></g></g></g></svg>