<?xml version="1.0" encoding="UTF-8" standalone="no"?>
<svg
   xmlns:dc="http://purl.org/dc/elements/1.1/"
   xmlns:cc="http://creativecommons.org/ns#"
   xmlns:rdf="http://www.w3.org/1999/02/22-rdf-syntax-ns#"
   xmlns:svg="http://www.w3.org/2000/svg"
   xmlns="http://www.w3.org/2000/svg"
   viewBox="0 0 91.527748 71.056999"
   height="71.056999"
   width="91.527748"
   xml:space="preserve"
   version="1.1"
   id="svg2"><metadata
     id="metadata8"><rdf:RDF><cc:Work
         rdf:about=""><dc:format>image/svg+xml</dc:format><dc:type
           rdf:resource="http://purl.org/dc/dcmitype/StillImage" /><dc:title></dc:title></cc:Work></rdf:RDF></metadata><defs
     id="defs6"><clipPath
       id="clipPath16"
       clipPathUnits="userSpaceOnUse"><path
         id="path18"
         d="m 0,56.846 73.222,0 L 73.222,0 0,0 0,56.846 Z" /></clipPath></defs><g
     transform="matrix(1.25,0,0,-1.25,0,71.057)"
     id="g10"><g
       id="g12"><g
         clip-path="url(#clipPath16)"
         id="g14"><g
           transform="translate(49.3889,27.1678)"
           id="g20"><path
             id="path22"
             style="fill:#000000;fill-opacity:1;fill-rule:nonzero;stroke:none"
             d="m 0,0 c 1.228,0 2.223,-0.995 2.223,-2.223 0,-1.228 -0.995,-2.224 -2.223,-2.224 -1.228,0 -2.223,0.996 -2.223,2.224 C -2.223,-0.995 -1.228,0 0,0" /></g><g
           transform="translate(49.3889,27.1678)"
           id="g24"><path
             id="path26"
             style="fill:#000000;fill-opacity:1;fill-rule:nonzero;stroke:none"
             d="m 0,0 c 1.228,0 2.223,-0.995 2.223,-2.223 0,-1.228 -0.995,-2.224 -2.223,-2.224 -1.228,0 -2.223,0.996 -2.223,2.224 C -2.223,-0.995 -1.228,0 0,0 Z" /></g><g
           transform="translate(70.5,21.8911)"
           id="g28"><path
             id="path30"
             style="fill:#000000;fill-opacity:1;fill-rule:nonzero;stroke:none"
             d="m 0,0 c 0,-1.996 -1.618,-3.613 -3.613,-3.613 l -19.44,0 c -1.996,0 -3.614,1.617 -3.614,3.613 l 0,6.107 c 0,1.995 1.618,3.613 3.614,3.613 l 19.44,0 C -1.618,9.72 0,8.102 0,6.107 L 0,0 Z m -6.667,-15.556 c 0,-1.995 -1.617,-3.613 -3.613,-3.613 l -53.884,0 c -1.996,0 -3.614,1.618 -3.614,3.613 l 0,38.329 c 0,1.996 1.618,3.614 3.614,3.614 l 53.884,0 c 1.996,0 3.613,-1.618 3.613,-3.614 l 0,-10.831 -16.077,0 c -3.218,0 -6.145,-2.692 -6.145,-5.91 l 0,-6.104 c 0,-3.217 2.927,-5.764 6.145,-5.764 l 16.077,0 0,-9.72 z M -22.288,32.51 c 1.958,-0.041 3.399,-1.923 3.399,-3.891 l 0,-0.01 -31.605,0 28.206,3.901 z m 18.984,-20.568 -1.14,0 0,10.554 c 0,3.217 -2.682,6.113 -5.899,6.113 l -6.324,0 0,0.01 c 0,3.218 -2.479,5.835 -5.696,5.835 L -64.18,28.331 C -67.359,28.284 -70,25.684 -70,22.496 l 0,-37.796 c 0,-3.217 2.896,-6.091 6.113,-6.091 l 0.081,0 1.743,0 51.72,0 c 3.217,0 5.899,2.874 5.899,6.091 l 0,9.464 1.14,0 c 3.216,0 5.526,2.547 5.526,5.765 l 0,6.104 c 0,3.217 -2.31,5.909 -5.526,5.909" /></g><g
           transform="translate(70.5,21.8911)"
           id="g32"><path
             id="path34"
             d="m -63.886719,-21.890625 c -3.514793,0 -6.613281,3.072771 -6.613281,6.589844 l 0,37.796875 c 0,3.464139 2.86506,6.283015 6.3125,6.333984 l -0.06445,-0.0039 41.853515,6.126953 0.03516,0 c 3.313997,0 5.847268,-2.606091 6.099609,-5.84375 l 5.919922,0 c 3.5170725,0 6.4003906,-3.118383 6.4003906,-6.613281 l 0,-10.054688 0.6386719,0 c 3.49502156,0 6.0273437,-2.9518494 6.0273437,-6.4082029 l 0,-6.1035156 c 0,-3.4572791 -2.54735116,-6.265625 -6.0273437,-6.265625 l -0.6386719,0 0,-8.9648435 c 0,-3.494899 -2.8855976,-6.589844 -6.4003906,-6.589844 l -51.71875,0 -1.744141,0 -0.08008,0 z m 0,1 0.08008,0 1.744141,0 51.71875,0 c 2.919207,0 5.4003906,2.650742 5.4003906,5.589844 l 0,9.9648435 1.6386719,0 c 2.95200746,0 5.0273437,2.2869041 5.0273437,5.265625 l 0,6.1035156 c 0,2.9776466 -2.09036526,5.4082029 -5.0273437,5.4082029 l -1.6386719,0 0,11.054688 c 0,2.939101 -2.4834631,5.613281 -5.4003906,5.613281 l -6.824219,0 0,0.509766 c 0,2.956346 -2.242936,5.324243 -5.18164,5.332031 l -41.791016,-6.119141 -0.03125,-0.002 C -67.082435,27.787047 -69.5,25.407954 -69.5,22.496094 l 0,-37.796875 c 0,-2.916928 2.694074,-5.589844 5.613281,-5.589844 z m -0.277343,1.220703 c -2.266208,0 -4.113282,1.847939 -4.113282,4.113281 l 0,38.330079 c 0,2.266207 1.847074,4.113281 4.113282,4.113281 l 53.884765,0 c 2.2662072,0 4.1113283,-1.847241 4.1113282,-4.113281 l 0,-11.332032 -16.5761722,0 c -2.939151,0 -5.644531,-2.4953464 -5.644531,-5.410156 l 0,-6.10351562 c 0,-2.91371538 2.69036,-5.26367188 5.644531,-5.26367188 l 16.5761722,0 0,-10.2207035 c 0,-2.265175 -1.845121,-4.113281 -4.1113282,-4.113281 l -53.884765,0 z m 0,1 53.884765,0 c 1.725793,0 3.1113282,1.388457 3.1113282,3.113281 l 0,9.2207035 -15.5761722,0 c -3.481828,0 -6.644531,2.7433872 -6.644531,6.26367188 l 0,6.10351562 c 0,3.5211904 3.147683,6.410156 6.644531,6.410156 l 15.5761722,0 0,10.332032 c 0,1.725959 -1.3855352,3.113281 -3.1113282,3.113281 l -53.884765,0 c -1.725793,0 -3.113282,-1.387489 -3.113282,-3.113281 l 0,-38.330079 c 0,-1.724657 1.387489,-3.113281 3.113282,-3.113281 z m 41.111328,14.5566408 c -2.26604,0 -4.115235,1.8470741 -4.115235,4.1132812 l 0,6.1074219 c 0,2.2653425 1.849028,4.1132811 4.115235,4.1132811 l 19.4394528,0 C -1.3479387,10.220703 0.5,8.3727644 0.5,6.1074219 L 0.5,0 c 0,-2.2662071 -1.8481058,-4.1132812 -4.1132812,-4.1132812 l -19.4394528,0 z m 0,1 19.4394528,0 C -1.8884567,-3.1132812 -0.5,-1.7257929 -0.5,0 l 0,6.1074219 c 0,1.7246575 -1.3886238,3.1132812 -3.1132812,3.1132812 l -19.4394528,0 c -1.725793,0 -3.115235,-1.3886237 -3.115235,-3.1132812 l 0,-6.1074219 c 0,-1.7257929 1.389275,-3.1132812 3.115235,-3.1132812 z m -27.441407,31.2226562 -0.06836,0.994141 28.246094,3.90625 0.03906,0 c 2.273051,-0.0476 3.888672,-2.178554 3.888672,-4.390625 l 0,-0.509766 -32.105469,0 z m 7.267579,1 23.660156,0 c -0.229128,1.50512 -1.255814,2.857288 -2.71875,2.896484 l -20.941406,-2.896484 z"
             style="color:#000000;font-style:normal;font-variant:normal;font-weight:normal;font-stretch:normal;font-size:medium;line-height:normal;font-family:sans-serif;text-indent:0;text-align:start;text-decoration:none;text-decoration-line:none;text-decoration-style:solid;text-decoration-color:#000000;letter-spacing:normal;word-spacing:normal;text-transform:none;direction:ltr;block-progression:tb;writing-mode:lr-tb;baseline-shift:baseline;text-anchor:start;white-space:normal;clip-rule:nonzero;display:inline;overflow:visible;visibility:visible;opacity:1;isolation:auto;mix-blend-mode:normal;color-interpolation:sRGB;color-interpolation-filters:linearRGB;solid-color:#000000;solid-opacity:1;fill:#000000;fill-opacity:1;fill-rule:nonzero;stroke:none;stroke-width:1;stroke-linecap:butt;stroke-linejoin:miter;stroke-miterlimit:10;stroke-dasharray:none;stroke-dashoffset:0;stroke-opacity:1;color-rendering:auto;image-rendering:auto;shape-rendering:auto;text-rendering:auto;enable-background:accumulate" /></g></g></g></g></svg>
